<svg width="16" height="16" viewBox="0 0 16 16" xmlns="http://www.w3.org/2000/svg">
<path d="M6.64066 1.98121C7.93776 1.68815 9.29484 1.82223 10.5095 2.36345C10.7617 2.47584 11.0573 2.36248 11.1697 2.11024C11.2821 1.858 11.1687 1.56242 10.9165 1.45003C9.50487 0.821033 7.92772 0.665211 6.42028 1.0058C4.91284 1.34638 3.55588 2.16513 2.55177 3.33993C1.54767 4.51473 0.950228 5.98263 0.848543 7.52472C0.746858 9.0668 1.14638 10.6004 1.98753 11.8969C2.82868 13.1934 4.06638 14.1832 5.51605 14.7188C6.96571 15.2544 8.54967 15.307 10.0317 14.8688C11.5137 14.4306 12.8144 13.5251 13.7397 12.2873C14.665 11.0495 15.1655 9.54579 15.1663 8.00036V7.38674C15.1663 7.1106 14.9425 6.88674 14.6663 6.88674C14.3902 6.88674 14.1663 7.1106 14.1663 7.38674L14.1663 7.99979C14.1655 9.32948 13.7349 10.6236 12.9388 11.6886C12.1425 12.7537 11.0234 13.5328 9.74815 13.9099C8.47292 14.2869 7.10998 14.2416 5.8626 13.7808C4.61521 13.3199 3.55021 12.4682 2.82643 11.3526C2.10266 10.2371 1.75888 8.91743 1.84638 7.59051C1.93387 6.2636 2.44795 5.00052 3.31195 3.98965C4.17594 2.97878 5.34356 2.27427 6.64066 1.98121Z"/>
<path d="M15.0204 3.02013C15.2156 2.82477 15.2154 2.50818 15.02 2.31302C14.8247 2.11785 14.5081 2.11801 14.3129 2.31337L7.99982 8.6328L6.35355 6.98653C6.15829 6.79127 5.84171 6.79127 5.64645 6.98653C5.45118 7.18179 5.45118 7.49837 5.64645 7.69363L7.64645 9.69363C7.74025 9.78743 7.86747 9.84011 8.00013 9.84008C8.13278 9.84005 8.25998 9.7873 8.35373 9.69346L15.0204 3.02013Z"/>
</svg>
