<svg width="16" height="16" viewBox="0 0 16 16" xmlns="http://www.w3.org/2000/svg">
<path fill-rule="evenodd" clip-rule="evenodd" d="M3.33333 2.5C2.8731 2.5 2.5 2.8731 2.5 3.33333V12.6667C2.5 13.0628 2.77642 13.3944 3.14691 13.4791L10.3128 6.31319C10.508 6.11793 10.8246 6.11793 11.0199 6.31319L13.5 8.7933V3.33333C13.5 2.8731 13.1269 2.5 12.6667 2.5H3.33333ZM13.5 10.2075L10.6663 7.37385L4.5402 13.5H12.6667C13.1269 13.5 13.5 13.1269 13.5 12.6667V10.2075ZM3.34205 14.5H12.6667C13.6792 14.5 14.5 13.6792 14.5 12.6667V3.33333C14.5 2.32081 13.6792 1.5 12.6667 1.5H3.33333C2.32081 1.5 1.5 2.32081 1.5 3.33333V12.6667C1.5 13.6755 2.31486 14.494 3.32231 14.5C3.32889 14.5001 3.33547 14.5001 3.34205 14.5ZM5.66699 5.16675C5.39085 5.16675 5.16699 5.39061 5.16699 5.66675C5.16699 5.94289 5.39085 6.16675 5.66699 6.16675C5.94313 6.16675 6.16699 5.94289 6.16699 5.66675C6.16699 5.39061 5.94313 5.16675 5.66699 5.16675ZM4.16699 5.66675C4.16699 4.83832 4.83857 4.16675 5.66699 4.16675C6.49542 4.16675 7.16699 4.83832 7.16699 5.66675C7.16699 6.49518 6.49542 7.16675 5.66699 7.16675C4.83857 7.16675 4.16699 6.49518 4.16699 5.66675Z"/>
</svg>
