<svg width="16" height="16" viewBox="0 0 16 16" xmlns="http://www.w3.org/2000/svg">
<path fill-rule="evenodd" clip-rule="evenodd" d="M7 5C7 6.10457 6.10457 7 5 7C3.89543 7 3 6.10457 3 5C3 3.89543 3.89543 3 5 3C6.10457 3 7 3.89543 7 5ZM6 5C6 5.55228 5.55228 6 5 6C4.44772 6 4 5.55228 4 5C4 4.44772 4.44772 4 5 4C5.55228 4 6 4.44772 6 5Z"/>
<path fill-rule="evenodd" clip-rule="evenodd" d="M2 0C0.895431 0 0 0.895431 0 2V14C0 15.1046 0.895431 16 2 16H14C15.1046 16 16 15.1046 16 14V2C16 0.895431 15.1046 0 14 0H2ZM14 1H2C1.44772 1 1 1.44772 1 2V14C1 14.5523 1.44772 15 2 15H2.28396L9.78268 7.03262C10.1693 6.6218 10.8191 6.61196 11.218 7.01088L15 10.7929V2C15 1.44772 14.5523 1 14 1ZM15 12.2071L10.5109 7.71798L3.65721 15H14C14.5523 15 15 14.5523 15 14V12.2071Z"/>
</svg>
