<svg width="24" height="24" viewBox="0 0 24 24" xmlns="http://www.w3.org/2000/svg">
<path d="M19 4H5C4.20435 4 3.44129 4.31607 2.87868 4.87868C2.31607 5.44129 2 6.20435 2 7V17C2 17.7956 2.31607 18.5587 2.87868 19.1213C3.44129 19.6839 4.20435 20 5 20H19C19.7956 20 20.5587 19.6839 21.1213 19.1213C21.6839 18.5587 22 17.7956 22 17V7C22 6.20435 21.6839 5.44129 21.1213 4.87868C20.5587 4.31607 19.7956 4 19 4ZM20 14.25H17C16.4033 14.25 15.831 14.0129 15.409 13.591C14.9871 13.169 14.75 12.5967 14.75 12C14.75 11.4033 14.9871 10.831 15.409 10.409C15.831 9.98705 16.4033 9.75 17 9.75H20V14.25ZM16 12C16 12.1978 16.0586 12.3911 16.1685 12.5556C16.2784 12.72 16.4346 12.8482 16.6173 12.9239C16.8 12.9996 17.0011 13.0194 17.1951 12.9808C17.3891 12.9422 17.5673 12.847 17.7071 12.7071C17.847 12.5673 17.9422 12.3891 17.9808 12.1951C18.0194 12.0011 17.9996 11.8 17.9239 11.6173C17.8482 11.4346 17.72 11.2784 17.5556 11.1685C17.3911 11.0586 17.1978 11 17 11C16.7348 11 16.4804 11.1054 16.2929 11.2929C16.1054 11.4804 16 11.7348 16 12Z"/>
</svg>
