<svg width="32" height="32" viewBox="0 0 32 32" xmlns="http://www.w3.org/2000/svg">
<path fill-rule="evenodd" clip-rule="evenodd" d="M16.0003 3.66675C9.18881 3.66675 3.66699 9.18857 3.66699 16.0001C3.66699 22.8116 9.18881 28.3334 16.0003 28.3334C22.8118 28.3334 28.3337 22.8116 28.3337 16.0001C28.3337 9.18857 22.8118 3.66675 16.0003 3.66675ZM1.66699 16.0001C1.66699 8.084 8.08424 1.66675 16.0003 1.66675C23.9164 1.66675 30.3337 8.084 30.3337 16.0001C30.3337 23.9162 23.9164 30.3334 16.0003 30.3334C8.08424 30.3334 1.66699 23.9162 1.66699 16.0001ZM20.7071 11.2929C21.0976 11.6834 21.0976 12.3166 20.7071 12.7071L17.4142 16L20.7071 19.2929C21.0976 19.6834 21.0976 20.3166 20.7071 20.7071C20.3166 21.0976 19.6834 21.0976 19.2929 20.7071L16 17.4142L12.7071 20.7071C12.3166 21.0976 11.6834 21.0976 11.2929 20.7071C10.9024 20.3166 10.9024 19.6834 11.2929 19.2929L14.5858 16L11.2929 12.7071C10.9024 12.3166 10.9024 11.6834 11.2929 11.2929C11.6834 10.9024 12.3166 10.9024 12.7071 11.2929L16 14.5858L19.2929 11.2929C19.6834 10.9024 20.3166 10.9024 20.7071 11.2929Z"/>
</svg>
