<svg width="32" height="32" viewBox="0 0 32 32" xmlns="http://www.w3.org/2000/svg">
<path d="M16.0003 10.9999C16.5526 10.9999 17.0003 11.4477 17.0003 11.9999V18.9999C17.0003 19.5522 16.5526 19.9999 16.0003 19.9999C15.448 19.9999 15.0003 19.5522 15.0003 18.9999V11.9999C15.0003 11.4477 15.448 10.9999 16.0003 10.9999Z"/>
<path d="M16.0003 24.9999C16.8287 24.9999 17.5003 24.3284 17.5003 23.4999C17.5003 22.6715 16.8287 21.9999 16.0003 21.9999C15.1719 21.9999 14.5003 22.6715 14.5003 23.4999C14.5003 24.3284 15.1719 24.9999 16.0003 24.9999Z"/>
<path fill-rule="evenodd" clip-rule="evenodd" d="M14.2248 2.25173C14.971 0.812573 17.0296 0.812576 17.7758 2.25173L30.1309 26.0793C30.8212 27.4106 29.855 28.9999 28.3554 28.9999H3.64526C2.14562 28.9999 1.17944 27.4106 1.86975 26.0793L14.2248 2.25173ZM16.0003 3.17236L3.64526 26.9999H28.3554L16.0003 3.17236Z"/>
</svg>
