<svg width="32" height="32" viewBox="0 0 32 32" xmlns="http://www.w3.org/2000/svg">
<path fill-rule="evenodd" clip-rule="evenodd" d="M14 10C14 12.2091 12.2091 14 10 14C7.79086 14 6 12.2091 6 10C6 7.79086 7.79086 6 10 6C12.2091 6 14 7.79086 14 10ZM12 10C12 11.1046 11.1046 12 10 12C8.89543 12 8 11.1046 8 10C8 8.89543 8.89543 8 10 8C11.1046 8 12 8.89543 12 10Z"/>
<path fill-rule="evenodd" clip-rule="evenodd" d="M4 0C1.79086 0 0 1.79086 0 4V28C0 30.2091 1.79086 32 4 32H28C30.2091 32 32 30.2091 32 28V4C32 1.79086 30.2091 0 28 0H4ZM28 2H4C2.89543 2 2 2.89543 2 4V28C2 29.1046 2.89543 30 4 30H4.56793L19.5654 14.0652C20.3387 13.2436 21.6381 13.2239 22.436 14.0218L30 21.5858V4C30 2.89543 29.1046 2 28 2ZM30 24.4142L21.0218 15.436L7.31442 30H28C29.1046 30 30 29.1046 30 28V24.4142Z"/>
</svg>
