<svg width="32" height="32" viewBox="0 0 32 32" xmlns="http://www.w3.org/2000/svg">
<path d="M20.5973 11.4023C20.9788 11.7837 20.9788 12.4022 20.5973 12.7836L17.381 15.9999L20.5973 19.2162C20.9788 19.5977 20.9788 20.2161 20.5973 20.5976C20.2159 20.979 19.5974 20.979 19.216 20.5976L15.9997 17.3812L12.7834 20.5976C12.4019 20.979 11.7835 20.979 11.402 20.5976C11.0206 20.2161 11.0206 19.5977 11.402 19.2162L14.6184 15.9999L11.402 12.7836C11.0206 12.4022 11.0206 11.7837 11.402 11.4023C11.7835 11.0208 12.4019 11.0208 12.7834 11.4023L15.9997 14.6186L19.216 11.4023C19.5974 11.0208 20.2159 11.0208 20.5973 11.4023Z"/>
<path fill-rule="evenodd" clip-rule="evenodd" d="M2 16C2 8.26801 8.26801 2 16 2C23.732 2 30 8.26801 30 16C30 23.732 23.732 30 16 30C8.26801 30 2 23.732 2 16ZM16 3.95349C9.34689 3.95349 3.95349 9.34689 3.95349 16C3.95349 22.6531 9.34689 28.0465 16 28.0465C22.6531 28.0465 28.0465 22.6531 28.0465 16C28.0465 9.34689 22.6531 3.95349 16 3.95349Z"/>
</svg>
