<svg width="12" height="12" viewBox="0 0 12 12" xmlns="http://www.w3.org/2000/svg">
<path d="M9.5 2H2.5C2.10218 2 1.72064 2.15804 1.43934 2.43934C1.15804 2.72064 1 3.10218 1 3.5V8.5C1 8.89782 1.15804 9.27936 1.43934 9.56066C1.72064 9.84196 2.10218 10 2.5 10H9.5C9.89782 10 10.2794 9.84196 10.5607 9.56066C10.842 9.27936 11 8.89782 11 8.5V3.5C11 3.10218 10.842 2.72064 10.5607 2.43934C10.2794 2.15804 9.89782 2 9.5 2ZM10 7.125H8.5C8.20163 7.125 7.91548 7.00647 7.7045 6.7955C7.49353 6.58452 7.375 6.29837 7.375 6C7.375 5.70163 7.49353 5.41548 7.7045 5.2045C7.91548 4.99353 8.20163 4.875 8.5 4.875H10V7.125ZM10 4H8.5C7.96957 4 7.46086 4.21071 7.08579 4.58579C6.71071 4.96086 6.5 5.46957 6.5 6C6.5 6.53043 6.71071 7.03914 7.08579 7.41421C7.46086 7.78929 7.96957 8 8.5 8H10V8.5C10 8.63261 9.94732 8.75979 9.85355 8.85355C9.75979 8.94732 9.63261 9 9.5 9H2.5C2.36739 9 2.24021 8.94732 2.14645 8.85355C2.05268 8.75979 2 8.63261 2 8.5V3.5C2 3.36739 2.05268 3.24021 2.14645 3.14645C2.24021 3.05268 2.36739 3 2.5 3H9.5C9.63261 3 9.75979 3.05268 9.85355 3.14645C9.94732 3.24021 10 3.36739 10 3.5V4ZM8 6C8 6.09889 8.02932 6.19556 8.08426 6.27779C8.13921 6.36001 8.2173 6.4241 8.30866 6.46194C8.40002 6.49978 8.50056 6.50969 8.59755 6.49039C8.69454 6.4711 8.78363 6.42348 8.85355 6.35355C8.92348 6.28363 8.9711 6.19454 8.99039 6.09755C9.00969 6.00055 8.99978 5.90002 8.96194 5.80866C8.9241 5.7173 8.86001 5.63921 8.77779 5.58427C8.69556 5.52932 8.59889 5.5 8.5 5.5C8.36739 5.5 8.24021 5.55268 8.14645 5.64645C8.05268 5.74021 8 5.86739 8 6Z"/>
</svg>
