<svg width="36" height="36" viewBox="0 0 36 36" fill="none" xmlns="http://www.w3.org/2000/svg">
<path d="M28.5 6H7.5C6.30653 6 5.16193 6.47411 4.31802 7.31802C3.47411 8.16193 3 9.30653 3 10.5V25.5C3 26.6935 3.47411 27.8381 4.31802 28.682C5.16193 29.5259 6.30653 30 7.5 30H28.5C29.6935 30 30.8381 29.5259 31.682 28.682C32.5259 27.8381 33 26.6935 33 25.5V10.5C33 9.30653 32.5259 8.16193 31.682 7.31802C30.8381 6.47411 29.6935 6 28.5 6ZM30 21.375H25.5C24.6049 21.375 23.7465 21.0194 23.1135 20.3865C22.4806 19.7535 22.125 18.8951 22.125 18C22.125 17.1049 22.4806 16.2465 23.1135 15.6135C23.7465 14.9806 24.6049 14.625 25.5 14.625H30V21.375ZM30 12H25.5C23.9087 12 22.3826 12.6321 21.2574 13.7574C20.1321 14.8826 19.5 16.4087 19.5 18C19.5 19.5913 20.1321 21.1174 21.2574 22.2426C22.3826 23.3679 23.9087 24 25.5 24H30V25.5C30 25.8978 29.842 26.2794 29.5607 26.5607C29.2794 26.842 28.8978 27 28.5 27H7.5C7.10218 27 6.72064 26.842 6.43934 26.5607C6.15804 26.2794 6 25.8978 6 25.5V10.5C6 10.1022 6.15804 9.72064 6.43934 9.43934C6.72064 9.15804 7.10218 9 7.5 9H28.5C28.8978 9 29.2794 9.15804 29.5607 9.43934C29.842 9.72064 30 10.1022 30 10.5V12ZM24 18C24 18.2967 24.088 18.5867 24.2528 18.8334C24.4176 19.08 24.6519 19.2723 24.926 19.3858C25.2001 19.4994 25.5017 19.5291 25.7926 19.4712C26.0836 19.4133 26.3509 19.2704 26.5607 19.0607C26.7704 18.8509 26.9133 18.5836 26.9712 18.2926C27.0291 18.0017 26.9994 17.7001 26.8858 17.426C26.7723 17.1519 26.58 16.9176 26.3334 16.7528C26.0867 16.588 25.7967 16.5 25.5 16.5C25.1022 16.5 24.7206 16.658 24.4393 16.9393C24.158 17.2206 24 17.6022 24 18Z" fill="black"/>
</svg>
