<svg width="16" height="16" viewBox="0 0 16 16" xmlns="http://www.w3.org/2000/svg">
<path d="M10.3536 5.64645C10.5488 5.84171 10.5488 6.15829 10.3536 6.35355L8.70711 8L10.3536 9.64645C10.5488 9.84171 10.5488 10.1583 10.3536 10.3536C10.1583 10.5488 9.84171 10.5488 9.64645 10.3536L8 8.70711L6.35355 10.3536C6.15829 10.5488 5.84171 10.5488 5.64645 10.3536C5.45118 10.1583 5.45118 9.84171 5.64645 9.64645L7.29289 8L5.64645 6.35355C5.45118 6.15829 5.45118 5.84171 5.64645 5.64645C5.84171 5.45118 6.15829 5.45118 6.35355 5.64645L8 7.29289L9.64645 5.64645C9.84171 5.45118 10.1583 5.45118 10.3536 5.64645Z"/>
<path fill-rule="evenodd" clip-rule="evenodd" d="M7.99967 0.833252C4.04163 0.833252 0.833008 4.04188 0.833008 7.99992C0.833008 11.958 4.04163 15.1666 7.99967 15.1666C11.9577 15.1666 15.1663 11.958 15.1663 7.99992C15.1663 4.04188 11.9577 0.833252 7.99967 0.833252ZM7.99967 1.83325C4.59392 1.83325 1.83301 4.59416 1.83301 7.99992C1.83301 11.4057 4.59392 14.1666 7.99967 14.1666C11.4054 14.1666 14.1663 11.4057 14.1663 7.99992C14.1663 4.59416 11.4054 1.83325 7.99967 1.83325Z"/>
</svg>
