<svg width="16" height="16" viewBox="0 0 16 16" xmlns="http://www.w3.org/2000/svg">
<path d="M7.99975 5.5C8.2759 5.5 8.49975 5.72386 8.49975 6V9C8.49975 9.27614 8.2759 9.5 7.99975 9.5C7.72361 9.5 7.49975 9.27614 7.49975 9V6C7.49975 5.72386 7.72361 5.5 7.99975 5.5Z"/>
<path d="M7.99975 13C8.55204 13 8.99975 12.5523 8.99975 12C8.99975 11.4477 8.55204 11 7.99975 11C7.44747 11 6.99975 11.4477 6.99975 12C6.99975 12.5523 7.44747 13 7.99975 13Z"/>
<path fill-rule="evenodd" clip-rule="evenodd" d="M0.784067 13.5294C0.428811 14.1955 0.9115 15 1.66642 15H14.3331C15.088 15 15.5707 14.1955 15.2154 13.5294L8.88211 1.65441C8.50564 0.948529 7.49387 0.948529 7.1174 1.65441L0.784067 13.5294ZM7.99975 2.125L1.66642 14H14.3331L7.99975 2.125Z"/>
</svg>
