<svg width="16" height="16" viewBox="0 0 16 16" xmlns="http://www.w3.org/2000/svg">
<path fill-rule="evenodd" clip-rule="evenodd" d="M7 5.5C7 6.32843 6.32843 7 5.5 7C4.67157 7 4 6.32843 4 5.5C4 4.67157 4.67157 4 5.5 4C6.32843 4 7 4.67157 7 5.5ZM6 5.5C6 5.77614 5.77614 6 5.5 6C5.22386 6 5 5.77614 5 5.5C5 5.22386 5.22386 5 5.5 5C5.77614 5 6 5.22386 6 5.5Z"/>
<path fill-rule="evenodd" clip-rule="evenodd" d="M2 1C1.44772 1 1 1.44772 1 2V14C1 14.5523 1.44772 15 2 15H14C14.5523 15 15 14.5523 15 14V2C15 1.44772 14.5523 1 14 1H2ZM14 2H2V14H2.29289L9.90114 6.39175C10.2178 6.07505 10.7192 6.03942 11.0775 6.30815L14 8.5V2ZM14 14H3.70711L10.5469 7.16019L14 9.75V14Z"/>
</svg>
