<svg width="213" height="211" viewBox="0 0 213 211" fill="none" xmlns="http://www.w3.org/2000/svg">
<rect width="213" height="211" rx="105.5" fill="black"/>
<path fill-rule="evenodd" clip-rule="evenodd" d="M151.849 153.04C150.698 154.076 149.471 154.92 148.189 155.627L146.944 147.88C146.994 147.838 147.049 147.801 147.099 147.757C152.706 142.712 152.874 134.155 149.641 124.396C139.816 129.792 127.798 133.937 115.816 136.475C113.362 136.995 110.878 137.437 108.385 137.831C113.069 141.508 117.791 144.625 122.333 146.916C124.011 144.011 127.085 141.882 131.493 141.882C145.352 141.882 145.264 163.057 131.729 163.057C124.909 163.057 121.378 158.572 120.9 153.731C113.582 150.319 106.045 145.141 98.938 138.997C92.5759 139.559 86.3062 139.663 80.4529 139.198C81.8995 150.541 86.8164 157.312 93.1017 159.36C98.5358 161.13 104.406 158.841 110.106 153.619L115.941 157.467C108.246 165.118 99.6428 168.963 90.9005 166.115C79.6898 162.465 74.6195 151.672 73.5068 138.34C60.2143 136.063 50.1362 130.291 47.9051 119.765C47.5825 118.243 47.4319 116.752 47.4205 115.293C37.692 111.313 39.6943 94.9889 51.9111 94.9889C64.8696 94.9889 65.6327 113.495 54.6153 115.903C54.6409 116.711 54.6907 117.515 54.8555 118.293C56.2879 125.051 63.1729 129.398 73.2624 131.391C73.3349 125.37 74.0823 119.025 75.3059 112.714C61.462 92.7692 54.324 70.7045 66.8421 59.4484C73.9161 53.0906 83.0151 52.5136 92.6214 55.5191L89.7665 61.9423C81.8725 59.8875 75.6014 61.1295 71.5941 64.7318C63.7797 71.7575 67.0879 86.9059 77.4516 103.464C78.0741 101.149 78.7377 98.8556 79.4667 96.6188C84.7331 80.4515 93.6005 63.5381 104.277 53.5723C102.41 47.4291 105.959 39.5664 114.439 39.5664C128.297 39.5664 128.21 60.7415 114.675 60.7415C112.157 60.7415 110.096 60.1205 108.462 59.1059C99.387 67.7914 91.2103 83.106 86.1058 98.7817C84.6891 103.132 83.5707 107.23 82.6712 111.125C85.3371 114.736 88.2985 118.364 91.5186 121.945C94.6307 125.407 97.9148 128.723 101.28 131.803C105.522 131.302 109.901 130.591 114.366 129.644C126.32 127.112 138.02 123.072 147.137 118.018C146.387 116.359 145.563 114.68 144.66 112.992L148.864 106.319C150.4 108.975 151.78 111.651 153.015 114.317C161.262 108.493 166.047 101.675 164.511 94.4176C162.958 87.0892 155.727 82.6669 145.769 80.568C145.503 91.5982 143.14 103.842 139.441 115.303L131.275 117.621C131.76 116.263 132.235 114.894 132.689 113.498C136.448 101.958 138.786 89.8987 138.995 79.5278C128.358 78.4421 115.755 79.4156 103.825 81.9436C102.974 82.1241 102.196 82.3301 101.369 82.5191L103.744 74.8384C115.181 72.5377 127.66 71.5444 138.783 72.5817C138.104 64.81 135.874 58.5233 131.685 54.9607L132.955 47.233C141.012 51.7249 144.834 61.5245 145.634 73.5281C158.881 75.9795 169.132 81.9479 171.463 92.9468C173.731 103.653 166.887 113.157 155.658 120.736C160.241 133.519 160.258 145.48 151.849 153.04ZM86.3304 126.613C84.4802 124.557 82.6797 122.432 80.9417 120.261C80.3094 124.635 80.0081 128.672 80.0266 132.334C83.7469 132.662 87.7642 132.738 91.9961 132.563C90.0493 130.629 88.1536 128.642 86.3304 126.613Z" fill="white"/>
<path fill-rule="evenodd" clip-rule="evenodd" d="M108.042 100.037C109.427 101.4 111.566 102.213 114.347 102.363C120.745 102.708 125 104.543 125 108.843C125 114.165 118.685 120 110.679 120C106.256 120 102.013 118.314 98.8853 115.314C95.7573 112.313 94 108.243 94 104C94 99.7565 95.7573 95.6869 98.8853 92.6863C102.013 89.6857 106.256 88 110.679 88C111.004 88 111.326 88.0118 111.649 88.0299C111.727 88.0344 111.801 88.0411 111.877 88.0468C112.149 88.0659 112.418 88.0917 112.685 88.124H112.692C116.413 88.5748 119.614 90.2816 119.614 93.1847C119.615 96.8062 111.761 96.152 108.042 100.038L108.042 100.037ZM112.907 89.2397C111.51 89.2342 110.146 89.6466 109.005 90.4196C107.864 91.1925 107.003 92.2875 106.541 93.5521C106.341 94.1684 106.24 94.8101 106.241 95.4555C106.233 96.914 106.695 98.3392 107.564 99.5358C109.634 97.6114 112.111 96.7747 114.535 96.0985C117.237 95.3411 118.949 94.5635 118.949 93.1509C118.947 91.1026 116.816 89.2397 112.907 89.2397Z" fill="white"/>
<path d="M50.7384 105.98L47.4822 103.914L47.4909 102.59L51.7037 105.312L56.0224 102.581L56.0137 103.917L52.6719 105.993L55.9862 108.124L55.9775 109.454L51.6949 106.66L47.4469 109.334L47.4555 108.015L50.7384 105.98Z" fill="black"/>
<path d="M115.099 51.4337L117.603 46.7331L118.901 46.8792L115.108 53.6046C114.855 54.0322 114.631 54.3312 114.435 54.5018C114.239 54.6684 114.017 54.7889 113.769 54.8632C113.525 54.934 113.227 54.9496 112.874 54.9098C112.567 54.8753 112.373 54.8358 112.292 54.7912L112.426 53.9101L112.953 53.993C113.361 54.0389 113.686 53.8769 113.928 53.5072L114.107 53.2208L114.387 52.7275L112.205 46.1257L113.457 46.2666L115.099 51.4337Z" fill="black"/>
<path d="M131.954 156.97L130.98 157.533L126.714 150.144L127.688 149.582L130.975 155.275L131.327 147.481L132.306 146.916L136.572 154.304L135.592 154.87L132.305 149.176L131.954 156.97ZM133.288 158.649C133.052 158.239 133.002 157.829 133.138 157.416C133.273 157.009 133.567 156.675 134.021 156.413C134.474 156.151 134.913 156.064 135.339 156.153C135.764 156.241 136.094 156.488 136.328 156.894L135.562 157.336C135.425 157.1 135.253 156.951 135.047 156.889C134.842 156.832 134.616 156.874 134.369 157.017C134.132 157.153 133.986 157.326 133.93 157.534C133.871 157.744 133.911 157.969 134.05 158.209L133.288 158.649Z" fill="black"/>
</svg>
