<svg width="211" height="48" viewBox="0 0 211 48" fill="none" xmlns="http://www.w3.org/2000/svg">
<rect width="48" height="48" rx="24" fill="black"/>
<path fill-rule="evenodd" clip-rule="evenodd" d="M34.2196 34.8148C33.9602 35.0505 33.6836 35.2425 33.3947 35.4032L33.1142 33.641C33.1254 33.6313 33.1379 33.6229 33.1491 33.6129C34.4127 32.4653 34.4505 30.5186 33.722 28.2986C31.5079 29.5261 28.7996 30.4691 26.0994 31.0465C25.5463 31.1648 24.9866 31.2653 24.4249 31.3549C25.4804 32.1915 26.5445 32.9004 27.568 33.4215C27.9462 32.7608 28.6389 32.2765 29.6322 32.2765C32.7555 32.2765 32.7356 37.0936 29.6854 37.0936C28.1486 37.0936 27.3528 36.0733 27.2452 34.972C25.596 34.1958 23.8974 33.0178 22.2959 31.6203C20.8622 31.748 19.4493 31.7716 18.1303 31.6659C18.4563 34.2462 19.5643 35.7866 20.9807 36.2524C22.2053 36.6552 23.5282 36.1344 24.8127 34.9464L26.1276 35.8218C24.3935 37.5623 22.4548 38.4371 20.4847 37.7893C17.9583 36.9588 16.8157 34.5035 16.565 31.4706C13.5695 30.9527 11.2983 29.6396 10.7956 27.2451C10.7229 26.8989 10.6889 26.5598 10.6864 26.2278C8.49403 25.3223 8.94524 21.6088 11.6983 21.6088C14.6186 21.6088 14.7905 25.8188 12.3077 26.3664C12.3135 26.5504 12.3247 26.7334 12.3618 26.9102C12.6846 28.4477 14.2362 29.4366 16.5099 29.8898C16.5262 28.5201 16.6947 27.0767 16.9704 25.641C13.8506 21.1039 12.2421 16.0844 15.063 13.5238C16.6572 12.0775 18.7077 11.9462 20.8725 12.6299L20.2291 14.0911C18.4502 13.6237 17.037 13.9062 16.1339 14.7257C14.3729 16.324 15.1184 19.7701 17.4539 23.5368C17.5942 23.0102 17.7438 22.4885 17.908 21.9796C19.0948 18.3018 21.0931 14.4542 23.4991 12.1871C23.0783 10.7896 23.8782 9.00089 25.7891 9.00089C28.912 9.00089 28.8925 13.818 25.8422 13.818C25.2748 13.818 24.8104 13.6767 24.4421 13.4459C22.3971 15.4217 20.5545 18.9056 19.4042 22.4717C19.0849 23.4612 18.8329 24.3935 18.6302 25.2796C19.2309 26.101 19.8983 26.9263 20.624 27.741C21.3253 28.5285 22.0654 29.283 22.8237 29.9835C23.7796 29.8697 24.7666 29.7078 25.7727 29.4925C28.4666 28.9164 31.1031 27.9974 33.1577 26.8478C32.9886 26.4702 32.8029 26.0884 32.5995 25.7044L33.5468 24.1863C33.893 24.7905 34.2039 25.3992 34.4822 26.0057C36.3409 24.6809 37.4191 23.1298 37.0729 21.4789C36.7229 19.8118 35.0936 18.8057 32.8493 18.3283C32.7895 20.8375 32.2569 23.6228 31.4233 26.23L29.5832 26.7573C29.6924 26.4486 29.7994 26.1369 29.9019 25.8195C30.7489 23.1942 31.2757 20.4509 31.3228 18.0916C28.9258 17.8447 26.0856 18.0661 23.3972 18.6412C23.2054 18.6823 23.0302 18.7291 22.8438 18.7721L23.379 17.0248C25.9562 16.5015 28.7686 16.2755 31.275 16.5115C31.122 14.7435 30.6195 13.3133 29.6755 12.5029L29.9618 10.7449C31.7775 11.7668 32.6386 13.9961 32.8189 16.7268C35.8042 17.2844 38.1144 18.6422 38.6395 21.1443C39.1506 23.5798 37.6084 25.7419 35.0779 27.4659C36.1106 30.3741 36.1145 33.095 34.2196 34.8148ZM19.4548 28.8029C19.0378 28.3352 18.6321 27.8519 18.2404 27.3579C18.0979 28.353 18.03 29.2714 18.0342 30.1044C18.8726 30.1791 19.7779 30.1963 20.7316 30.1565C20.2928 29.7165 19.8656 29.2646 19.4548 28.8029Z" fill="white"/>
<path fill-rule="evenodd" clip-rule="evenodd" d="M24.3475 22.7572C24.6596 23.0674 25.1417 23.2522 25.7684 23.2863C27.2101 23.3648 28.169 23.7823 28.169 24.7605C28.169 25.9711 26.7459 27.2986 24.9418 27.2986C23.945 27.2986 22.9889 26.9151 22.284 26.2325C21.5791 25.5499 21.1831 24.6241 21.1831 23.6588C21.1831 22.6934 21.5791 21.7676 22.284 21.085C22.9889 20.4024 23.945 20.019 24.9418 20.019C25.0149 20.019 25.0875 20.0216 25.1604 20.0257C25.1779 20.0268 25.1947 20.0283 25.2118 20.0296C25.273 20.0339 25.3337 20.0398 25.3939 20.0472H25.3955C26.2338 20.1497 26.9553 20.538 26.9553 21.1984C26.9554 22.0223 25.1857 21.8734 24.3476 22.7575L24.3475 22.7572ZM25.4438 20.301C25.129 20.2997 24.8217 20.3935 24.5646 20.5694C24.3074 20.7452 24.1133 20.9943 24.0093 21.282C23.9643 21.4222 23.9415 21.5682 23.9416 21.715C23.9398 22.0468 24.0439 22.371 24.2399 22.6432C24.7063 22.2054 25.2644 22.0151 25.8106 21.8613C26.4196 21.689 26.8054 21.5121 26.8054 21.1907C26.805 20.7247 26.3246 20.301 25.4438 20.301Z" fill="white"/>
<path d="M11.2603 24.1068L10.1748 23.418L10.1777 22.9766L11.582 23.8843L13.0215 22.9739L13.0186 23.4192L11.9048 24.1111L13.0096 24.8215L13.0067 25.2648L11.5791 24.3335L10.1632 25.2246L10.166 24.7852L11.2603 24.1068Z" fill="black"/>
<path d="M25.9554 11.684L26.7883 10.1177L27.2211 10.1668L25.9592 12.4078C25.8752 12.5503 25.8005 12.6499 25.7352 12.7067C25.6701 12.7622 25.5962 12.8023 25.5135 12.827C25.4323 12.8506 25.3328 12.8556 25.2151 12.8423C25.1129 12.8307 25.0482 12.8174 25.021 12.8025L25.0655 12.5088L25.2413 12.5366C25.3771 12.5521 25.4853 12.4982 25.5659 12.375L25.6256 12.2795L25.7186 12.1152L24.9893 9.91331L25.4066 9.9607L25.9554 11.684Z" fill="black"/>
<path d="M29.8096 36.2897L29.4856 36.4786L28.0738 34.01L28.3977 33.8212L29.4857 35.7235L29.6076 33.1161L29.9333 32.9262L31.3452 35.3948L31.0195 35.5846L29.9315 33.6823L29.8096 36.2897ZM30.2517 36.8504C30.1735 36.7136 30.1572 36.5762 30.2027 36.4381C30.2477 36.3019 30.3456 36.1898 30.4964 36.1019C30.6471 36.0141 30.7931 35.9848 30.9343 36.014C31.0755 36.0432 31.1849 36.1256 31.2625 36.2613L31.0077 36.4098C30.9624 36.3307 30.9055 36.281 30.8369 36.2607C30.7689 36.2415 30.6939 36.2558 30.6118 36.3037C30.533 36.3496 30.4843 36.4074 30.4657 36.477C30.4459 36.5473 30.4589 36.6226 30.5048 36.7029L30.2517 36.8504Z" fill="black"/>
<path d="M63.4413 22.312H70.5213V23.56C70.5213 26.088 69.9133 28 68.6973 29.296C67.4813 30.576 65.8093 31.216 63.6813 31.216C62.5453 31.216 61.5293 31.048 60.6333 30.712C59.7373 30.36 58.9693 29.848 58.3293 29.176C57.6893 28.504 57.2013 27.672 56.8652 26.68C56.5293 25.688 56.3613 24.544 56.3613 23.248V21.952C56.3613 19.376 57.0013 17.408 58.2812 16.048C59.5613 14.672 61.3613 13.984 63.6813 13.984C64.6413 13.984 65.5053 14.128 66.2733 14.416C67.0573 14.688 67.7293 15.072 68.2893 15.568C68.8653 16.048 69.3293 16.616 69.6813 17.272C70.0333 17.928 70.2733 18.624 70.4013 19.36H67.2812C67.0413 18.592 66.6253 17.952 66.0333 17.44C65.4573 16.928 64.6733 16.672 63.6813 16.672C62.2893 16.672 61.2253 17.096 60.4893 17.944C59.7533 18.776 59.3853 20.112 59.3853 21.952V23.248C59.3853 25.024 59.7773 26.352 60.5613 27.232C61.3613 28.096 62.4013 28.528 63.6813 28.528C64.8973 28.528 65.8413 28.24 66.5133 27.664C67.2013 27.088 67.6173 26.12 67.7613 24.76H63.4413V22.312ZM73.1538 19H75.3378L75.5538 20.344C75.9698 19.832 76.4818 19.448 77.0898 19.192C77.7138 18.92 78.4018 18.784 79.1538 18.784H80.3538V21.376H79.1538C78.0498 21.376 77.2338 21.616 76.7058 22.096C76.1938 22.576 75.9378 23.224 75.9378 24.04V31H73.1538V19ZM86.9566 31.216C86.0926 31.216 85.3166 31.088 84.6286 30.832C83.9406 30.56 83.3486 30.176 82.8526 29.68C82.3566 29.168 81.9726 28.552 81.7006 27.832C81.4446 27.112 81.3166 26.296 81.3166 25.384V24.616C81.3166 23.704 81.4446 22.888 81.7006 22.168C81.9726 21.448 82.3566 20.84 82.8526 20.344C83.3486 19.832 83.9406 19.448 84.6286 19.192C85.3166 18.92 86.0926 18.784 86.9566 18.784C88.7006 18.784 90.0766 19.32 91.0846 20.392C92.0926 21.464 92.5966 23 92.5966 25V25.936H84.1006C84.1806 26.944 84.4606 27.672 84.9406 28.12C85.4206 28.552 86.0926 28.768 86.9566 28.768C87.8046 28.768 88.4206 28.624 88.8046 28.336C89.2046 28.032 89.4686 27.68 89.5966 27.28H92.4766C92.3486 27.84 92.1486 28.36 91.8766 28.84C91.6046 29.32 91.2446 29.736 90.7966 30.088C90.3486 30.44 89.8046 30.72 89.1646 30.928C88.5246 31.12 87.7886 31.216 86.9566 31.216ZM86.9566 21.232C86.1406 21.232 85.5006 21.432 85.0366 21.832C84.5726 22.232 84.2766 22.864 84.1486 23.728H89.7646C89.6526 22.832 89.3566 22.192 88.8766 21.808C88.4126 21.424 87.7726 21.232 86.9566 21.232ZM99.9175 31.216C99.0535 31.216 98.2775 31.088 97.5895 30.832C96.9015 30.56 96.3095 30.176 95.8135 29.68C95.3175 29.168 94.9335 28.552 94.6615 27.832C94.4055 27.112 94.2775 26.296 94.2775 25.384V24.616C94.2775 23.704 94.4055 22.888 94.6615 22.168C94.9335 21.448 95.3175 20.84 95.8135 20.344C96.3095 19.832 96.9015 19.448 97.5895 19.192C98.2775 18.92 99.0535 18.784 99.9175 18.784C101.662 18.784 103.038 19.32 104.046 20.392C105.054 21.464 105.557 23 105.557 25V25.936H97.0615C97.1415 26.944 97.4215 27.672 97.9015 28.12C98.3815 28.552 99.0535 28.768 99.9175 28.768C100.766 28.768 101.382 28.624 101.766 28.336C102.166 28.032 102.43 27.68 102.558 27.28H105.438C105.31 27.84 105.11 28.36 104.838 28.84C104.566 29.32 104.206 29.736 103.758 30.088C103.31 30.44 102.766 30.72 102.126 30.928C101.486 31.12 100.75 31.216 99.9175 31.216ZM99.9175 21.232C99.1015 21.232 98.4615 21.432 97.9975 21.832C97.5335 22.232 97.2375 22.864 97.1095 23.728H102.726C102.614 22.832 102.318 22.192 101.838 21.808C101.374 21.424 100.734 21.232 99.9175 21.232ZM107.958 19H110.142L110.358 20.344C111.254 19.304 112.494 18.784 114.078 18.784C115.55 18.784 116.694 19.224 117.51 20.104C118.342 20.968 118.758 22.28 118.758 24.04V31H115.974V24.04C115.974 23.16 115.758 22.496 115.326 22.048C114.91 21.6 114.334 21.376 113.598 21.376C112.734 21.376 112.046 21.608 111.534 22.072C111.038 22.536 110.774 23.152 110.742 23.92V31H107.958V19ZM126.083 31.216C124.435 31.216 123.211 30.856 122.411 30.136C121.627 29.4 121.171 28.368 121.043 27.04H123.971C124.099 27.728 124.307 28.216 124.595 28.504C124.899 28.776 125.395 28.912 126.083 28.912C126.899 28.912 127.451 28.8 127.739 28.576C128.043 28.336 128.195 28.024 128.195 27.64C128.195 27.208 128.019 26.88 127.667 26.656C127.331 26.432 126.907 26.256 126.395 26.128C125.883 25.984 125.331 25.856 124.739 25.744C124.147 25.616 123.595 25.432 123.083 25.192C122.571 24.936 122.139 24.592 121.787 24.16C121.451 23.712 121.283 23.096 121.283 22.312C121.283 21.816 121.379 21.352 121.571 20.92C121.763 20.488 122.059 20.12 122.459 19.816C122.859 19.496 123.355 19.248 123.947 19.072C124.555 18.88 125.267 18.784 126.083 18.784C127.619 18.784 128.771 19.144 129.539 19.864C130.307 20.568 130.755 21.56 130.883 22.84H127.955C127.827 22.184 127.627 21.728 127.355 21.472C127.099 21.216 126.675 21.088 126.083 21.088C125.395 21.088 124.907 21.2 124.619 21.424C124.347 21.648 124.211 21.92 124.211 22.24C124.211 22.64 124.379 22.936 124.715 23.128C125.067 23.304 125.499 23.456 126.011 23.584C126.523 23.696 127.075 23.816 127.667 23.944C128.259 24.056 128.811 24.248 129.323 24.52C129.835 24.776 130.259 25.144 130.595 25.624C130.947 26.104 131.123 26.752 131.123 27.568C131.123 28.096 131.019 28.584 130.811 29.032C130.619 29.48 130.315 29.864 129.899 30.184C129.499 30.504 128.979 30.76 128.339 30.952C127.715 31.128 126.963 31.216 126.083 31.216ZM133.649 19H136.433V31H133.649V19ZM135.041 17.56C134.529 17.56 134.097 17.392 133.745 17.056C133.409 16.704 133.241 16.272 133.241 15.76C133.241 15.248 133.409 14.824 133.745 14.488C134.097 14.136 134.529 13.96 135.041 13.96C135.537 13.96 135.961 14.136 136.313 14.488C136.665 14.824 136.841 15.248 136.841 15.76C136.841 16.272 136.665 16.704 136.313 17.056C135.961 17.392 135.537 17.56 135.041 17.56ZM143.701 30.736C142.997 30.736 142.357 30.624 141.781 30.4C141.205 30.16 140.701 29.808 140.269 29.344C139.853 28.88 139.525 28.304 139.285 27.616C139.061 26.912 138.949 26.088 138.949 25.144V24.376C138.949 23.48 139.069 22.688 139.309 22C139.549 21.296 139.877 20.712 140.293 20.248C140.725 19.768 141.229 19.408 141.805 19.168C142.381 18.912 143.013 18.784 143.701 18.784C145.397 18.784 146.677 19.384 147.541 20.584L147.805 19H149.989V31C149.989 32.664 149.557 33.912 148.693 34.744C147.829 35.592 146.485 36.016 144.661 36.016C143.813 36.016 143.077 35.928 142.453 35.752C141.845 35.576 141.333 35.32 140.917 34.984C140.501 34.648 140.181 34.232 139.957 33.736C139.749 33.256 139.613 32.704 139.549 32.08H142.333C142.461 32.64 142.693 33.064 143.029 33.352C143.365 33.64 143.909 33.784 144.661 33.784C145.525 33.784 146.165 33.56 146.581 33.112C146.997 32.68 147.205 31.976 147.205 31V29.32C146.773 29.784 146.261 30.136 145.669 30.376C145.077 30.616 144.421 30.736 143.701 30.736ZM144.541 28.144C145.309 28.144 145.941 27.88 146.437 27.352C146.949 26.824 147.205 26.088 147.205 25.144V24.376C147.205 23.432 146.949 22.696 146.437 22.168C145.941 21.64 145.309 21.376 144.541 21.376C143.693 21.376 143.037 21.624 142.573 22.12C142.109 22.6 141.877 23.352 141.877 24.376V25.144C141.877 26.136 142.117 26.888 142.597 27.4C143.077 27.896 143.725 28.144 144.541 28.144ZM153.099 14.2H155.883V20.032C156.683 19.2 157.795 18.784 159.219 18.784C160.691 18.784 161.835 19.224 162.651 20.104C163.483 20.968 163.899 22.28 163.899 24.04V31H161.115V24.04C161.115 23.16 160.899 22.496 160.467 22.048C160.051 21.6 159.475 21.376 158.739 21.376C157.875 21.376 157.187 21.608 156.675 22.072C156.179 22.536 155.915 23.152 155.883 23.92V31H153.099V14.2ZM165.229 19H167.389V15.64H170.173V19H173.149V21.448H170.173V26.752C170.173 27.376 170.309 27.832 170.581 28.12C170.869 28.408 171.293 28.552 171.853 28.552H173.389V31H171.349C170.069 31 169.085 30.664 168.397 29.992C167.725 29.304 167.389 28.32 167.389 27.04V21.448H165.229V19ZM181.438 14.2H186.958C189.598 14.2 191.598 14.872 192.958 16.216C194.318 17.544 194.998 19.448 194.998 21.928V23.272C194.998 25.72 194.31 27.624 192.934 28.984C191.558 30.328 189.566 31 186.958 31H181.438V14.2ZM184.318 16.744V28.456H186.958C188.622 28.456 189.87 28.032 190.702 27.184C191.55 26.336 191.974 25.032 191.974 23.272V21.928C191.974 20.184 191.55 18.888 190.702 18.04C189.854 17.176 188.606 16.744 186.958 16.744H184.318ZM203.39 31.216C201.294 31.216 199.742 30.744 198.734 29.8C197.726 28.84 197.158 27.36 197.03 25.36H200.102C200.182 26.512 200.47 27.328 200.966 27.808C201.478 28.272 202.286 28.504 203.39 28.504C204.542 28.504 205.382 28.288 205.91 27.856C206.454 27.424 206.726 26.896 206.726 26.272C206.726 25.648 206.494 25.168 206.03 24.832C205.566 24.496 204.982 24.224 204.278 24.016C203.574 23.792 202.814 23.584 201.998 23.392C201.182 23.184 200.422 22.904 199.718 22.552C199.014 22.2 198.43 21.72 197.966 21.112C197.502 20.504 197.27 19.688 197.27 18.664C197.27 17.992 197.398 17.376 197.654 16.816C197.91 16.24 198.286 15.744 198.782 15.328C199.294 14.896 199.934 14.568 200.702 14.344C201.47 14.104 202.366 13.984 203.39 13.984C205.438 13.984 206.934 14.432 207.878 15.328C208.838 16.208 209.382 17.552 209.51 19.36H206.438C206.358 18.4 206.086 17.712 205.622 17.296C205.174 16.88 204.422 16.672 203.366 16.672C202.278 16.672 201.494 16.872 201.014 17.272C200.534 17.656 200.294 18.128 200.294 18.688C200.294 19.28 200.526 19.736 200.99 20.056C201.454 20.36 202.038 20.616 202.742 20.824C203.446 21.032 204.206 21.24 205.022 21.448C205.838 21.64 206.598 21.92 207.302 22.288C208.006 22.64 208.59 23.136 209.054 23.776C209.518 24.4 209.75 25.248 209.75 26.32C209.75 27.04 209.622 27.704 209.366 28.312C209.11 28.904 208.718 29.416 208.19 29.848C207.678 30.28 207.022 30.616 206.222 30.856C205.422 31.096 204.478 31.216 203.39 31.216Z" fill="black"/>
</svg>
