<svg width="354" height="80" viewBox="0 0 354 80" fill="none" xmlns="http://www.w3.org/2000/svg">
<path fill-rule="evenodd" clip-rule="evenodd" d="M41.8216 33.5957C42.5914 34.3487 43.7804 34.7974 45.326 34.8802C48.8817 35.0706 51.2467 36.0841 51.2467 38.4587C51.2467 41.3974 47.7367 44.6199 43.2874 44.6199C40.8288 44.6199 38.4709 43.689 36.7324 42.032C34.9939 40.375 34.0172 38.1277 34.0172 35.7843C34.0172 33.4409 34.9939 31.1936 36.7324 29.5366C38.4709 27.8796 40.8288 26.9487 43.2874 26.9487C43.4677 26.9487 43.6466 26.9552 43.8265 26.9652C43.8696 26.9677 43.911 26.9714 43.9531 26.9745C44.1042 26.9851 44.2539 26.9993 44.4024 27.0171H44.4063C46.4739 27.2661 48.2532 28.2086 48.2532 29.8118C48.2535 31.8117 43.8888 31.4504 41.8219 33.5966L41.8216 33.5957ZM44.5255 27.6333C43.7491 27.6302 42.9911 27.858 42.357 28.2848C41.7228 28.7117 41.2441 29.3163 40.9874 30.0147C40.8765 30.355 40.8202 30.7094 40.8206 31.0658C40.816 31.8712 41.0729 32.6583 41.5561 33.319C42.7066 32.2564 44.0831 31.7943 45.4301 31.4209C46.9319 31.0026 47.8836 30.5732 47.8836 29.7931C47.8827 28.662 46.6979 27.6333 44.5255 27.6333Z" fill="black"/>
<path fill-rule="evenodd" clip-rule="evenodd" d="M26.3554 13.4471C25.3889 18.4238 25.2094 24.4908 25.907 31.0477C23.5462 33.5093 21.4741 35.9902 19.7395 38.4126C19.7028 38.3879 19.6662 38.3631 19.6297 38.3384C16.9502 36.5209 14.9896 34.6834 13.8071 32.9636C12.9766 31.7557 12.5796 30.6858 12.5102 29.7511L16.544 25.8848L14.4915 17.5182L6.21944 15.1125L0 21.0734L2.05258 29.44L9.24713 31.5324C9.56705 32.7173 10.1421 33.8713 10.8949 34.9661C12.4127 37.1735 14.7533 39.3013 17.6458 41.2633C17.6907 41.2937 17.7358 41.3242 17.7811 41.3546C17.5413 41.745 17.3114 42.133 17.0914 42.5181C15.3667 45.5376 14.2083 48.4666 13.821 51.1094C13.4333 53.7549 13.7997 56.2981 15.3814 58.2576C16.9631 60.2172 19.3717 61.112 22.0394 61.2913C24.7044 61.4703 27.8119 60.9561 31.1273 59.9074C35.9503 58.3819 41.4062 55.6638 46.9163 51.962C50.1991 52.4982 53.3807 52.8264 56.3888 52.9543C56.2535 54.4536 56.0556 55.8723 55.7985 57.1963C55.1815 60.3736 54.2407 62.916 53.0797 64.7122C52.9879 64.8543 52.8953 64.991 52.8018 65.1223L46.4216 63.2667L40.2021 69.2276L42.2547 77.5943L50.5267 80L56.7462 74.0391L55.2131 67.7899C55.5073 67.4242 55.7856 67.0367 56.048 66.6307C57.5344 64.3309 58.5986 61.317 59.268 57.8701C59.5637 56.347 59.7858 54.7219 59.9315 53.0119C62.3459 52.9847 64.6156 52.8167 66.6971 52.5124C70.1555 52.0069 73.1894 51.1117 75.5173 49.7863C77.847 48.46 79.6303 46.6015 80.1942 44.1427C80.7581 41.6839 79.9628 39.2341 78.4439 37.0251C76.9261 34.8178 74.5855 32.69 71.693 30.728C67.6054 27.9554 62.2567 25.4067 56.1284 23.3816C55.2646 20.7201 54.2912 18.2129 53.2334 15.9011C54.5612 15.3388 55.8473 14.8611 57.0796 14.4713C59.9793 13.5541 62.4991 13.15 64.5176 13.226L66.1109 19.7208L74.383 22.1266L80.6024 16.1656L78.5498 7.799L70.2778 5.39326L65.7095 9.77167C65.5086 9.74941 65.3059 9.73149 65.1017 9.71777C62.4367 9.5387 59.3292 10.0529 56.0137 11.1016C54.6123 11.5449 53.1575 12.0888 51.6634 12.7284C50.9067 11.3149 50.1177 9.99745 49.304 8.78835C47.3435 5.87528 45.1883 3.51492 42.9228 1.97681C40.6505 0.434131 38.1406 -0.358226 35.6045 0.156631C33.0684 0.671487 31.0662 2.37981 29.5753 4.68644C28.0889 6.98623 27.0247 10.0001 26.3554 13.4471ZM40.9376 4.90086C39.1748 3.70412 37.6275 3.35229 36.3076 3.62024C34.9878 3.88818 33.7001 4.81553 32.5436 6.60492C31.3826 8.40114 30.4418 10.9436 29.8248 14.1208C29.0723 17.9961 28.8272 22.6821 29.1737 27.8285C30.6938 26.4105 32.305 25.0106 33.9976 23.6445C38.8207 19.7514 43.7714 16.5622 48.4528 14.2202C47.7797 12.9754 47.0837 11.8193 46.3719 10.7616C44.5648 8.07651 42.7071 6.10219 40.9376 4.90086ZM66.1859 49.0153C64.3334 49.2861 62.2991 49.4416 60.1208 49.4748C60.243 44.2746 59.7254 38.4723 58.5073 32.4722C58.1665 30.7933 57.7812 29.1501 57.3561 27.5501C62.2306 29.3331 66.4445 31.4385 69.7091 33.6529C72.3886 35.4704 74.3492 37.3079 75.5317 39.0276C76.7131 40.7458 77.0172 42.1848 76.7493 43.3527C76.4815 44.5206 75.5807 45.6833 73.7687 46.7149C71.955 47.7475 69.3896 48.547 66.1859 49.0153ZM47.2863 24.5847C49.3617 25.0606 51.3717 25.5995 53.3016 26.1906C53.965 28.4147 54.5515 30.7509 55.0437 33.1754C55.5135 35.4895 55.8728 37.763 56.1274 39.9711C54.4196 41.6299 52.9223 43.0012 50.9237 44.6144C49.3201 45.9088 47.7077 47.1176 46.1026 48.2364C44.7696 47.996 43.4178 47.7198 42.0525 47.4066C38.579 46.61 35.2889 45.6371 32.2508 44.5386C32.245 44.5171 32.2387 44.4956 32.2321 44.4742C31.4543 41.9736 31.1299 40.8526 30.5796 38.1418C30.1782 36.1645 29.8575 34.217 29.6138 32.3145C31.616 30.3149 33.8257 28.3251 36.2174 26.3946C37.6212 25.2615 39.0318 24.194 40.4383 23.195C42.4075 23.5242 45.4041 24.153 47.2863 24.5847ZM50.0257 17.3852C50.7062 18.8734 51.3533 20.4555 51.958 22.1193C50.689 21.7692 49.3939 21.442 48.0764 21.1398C46.9149 20.8735 45.7614 20.6324 44.6187 20.4163C46.4557 19.2783 48.2664 18.2657 50.0257 17.3852ZM56.5867 49.4252C56.6249 47.8384 56.6001 46.1837 56.509 44.4744C55.475 45.4207 54.4034 46.3476 53.1435 47.3646C52.4584 47.9175 51.7708 48.4563 51.0817 48.9804C52.9778 49.2041 54.8184 49.3513 56.5867 49.4252ZM22.7607 40.265C24.3791 41.1728 26.1543 42.0495 28.0639 42.8784C27.7326 41.6925 27.464 40.5594 27.116 38.8449C26.8945 37.7541 26.6962 36.6697 26.5207 35.5944C25.1251 37.1701 23.8675 38.7351 22.7607 40.265ZM18.1315 56.0378C17.3762 55.102 17.0169 53.6757 17.3179 51.6219C17.6193 49.5655 18.5641 47.0656 20.1603 44.271C20.3604 43.9207 20.57 43.567 20.7889 43.2104C26.2846 46.3314 33.3719 49.0419 41.2624 50.8515C41.4667 50.8983 41.6706 50.9443 41.8744 50.9896C37.6827 53.5277 33.6441 55.4045 30.0615 56.5377C26.993 57.5083 24.35 57.9043 22.2763 57.765C20.2053 57.6258 18.8869 56.9736 18.1315 56.0378Z" fill="black"/>
<path d="M8.48045 23.7509L7.72962 26.1798L6.6519 26.459L7.71393 23.202L5.40991 21.0305L6.51842 20.7434L8.13461 22.3208L8.81241 20.1491L9.87473 19.8739L8.90683 22.8601L11.4246 25.2226L10.3007 25.5137L8.48045 23.7509Z" fill="white"/>
<path d="M71.4885 12.5528L75.9232 12.1947L75.5295 13.202L72.2706 13.4135L74.5914 15.6016L74.2149 16.5644L69.8992 12.3157L70.2756 11.3529L71.4885 12.5528Z" fill="white"/>
<path d="M46.9928 71.7457L47.7872 71.5221L51.8345 70.6125L52.6659 71.5756L48.4523 75.2131L47.8288 74.4908L51.1936 71.586L50.3586 71.8235L46.3114 72.7331L45.4904 71.782L49.7039 68.1446L50.3275 68.8669L46.9928 71.7457ZM46.6042 73.8145C46.8709 74.1235 46.9976 74.4204 46.9842 74.7051C46.9709 74.9897 46.8338 75.2447 46.5729 75.4698L46.0948 74.9161C46.2353 74.7948 46.3102 74.6706 46.3195 74.5435C46.3288 74.4164 46.2833 74.2947 46.1828 74.1783C46.0789 74.0579 45.9634 73.993 45.8362 73.9837C45.7057 73.9704 45.5702 74.0243 45.4297 74.1456L44.962 73.6038C45.2229 73.3787 45.4951 73.2802 45.7787 73.3086C46.0622 73.3369 46.3374 73.5055 46.6042 73.8145Z" fill="white"/>
<path d="M109.6 34.92H121.4V37C121.4 41.2133 120.387 44.4 118.36 46.56C116.333 48.6933 113.547 49.76 110 49.76C108.107 49.76 106.413 49.48 104.92 48.92C103.427 48.3333 102.147 47.48 101.08 46.36C100.013 45.24 99.2 43.8533 98.64 42.2C98.08 40.5467 97.8 38.64 97.8 36.48V34.32C97.8 30.0267 98.8667 26.7467 101 24.48C103.133 22.1867 106.133 21.04 110 21.04C111.6 21.04 113.04 21.28 114.32 21.76C115.627 22.2133 116.747 22.8533 117.68 23.68C118.64 24.48 119.413 25.4267 120 26.52C120.587 27.6133 120.987 28.7733 121.2 30H116C115.6 28.72 114.907 27.6533 113.92 26.8C112.96 25.9467 111.653 25.52 110 25.52C107.68 25.52 105.907 26.2267 104.68 27.64C103.453 29.0267 102.84 31.2533 102.84 34.32V36.48C102.84 39.44 103.493 41.6533 104.8 43.12C106.133 44.56 107.867 45.28 110 45.28C112.027 45.28 113.6 44.8 114.72 43.84C115.867 42.88 116.56 41.2667 116.8 39H109.6V34.92Z" fill="black"/>
<path d="M125.788 29.4H129.428L129.788 31.64C130.481 30.7867 131.334 30.1467 132.348 29.72C133.388 29.2667 134.534 29.04 135.788 29.04H137.788V33.36H135.788C133.948 33.36 132.588 33.76 131.708 34.56C130.854 35.36 130.428 36.44 130.428 37.8V49.4H125.788V29.4Z" fill="black"/>
<path d="M148.792 49.76C147.352 49.76 146.059 49.5467 144.912 49.12C143.766 48.6667 142.779 48.0267 141.952 47.2C141.126 46.3467 140.486 45.32 140.032 44.12C139.606 42.92 139.392 41.56 139.392 40.04V38.76C139.392 37.24 139.606 35.88 140.032 34.68C140.486 33.48 141.126 32.4667 141.952 31.64C142.779 30.7867 143.766 30.1467 144.912 29.72C146.059 29.2667 147.352 29.04 148.792 29.04C151.699 29.04 153.992 29.9333 155.672 31.72C157.352 33.5067 158.192 36.0667 158.192 39.4V40.96H144.032C144.166 42.64 144.632 43.8533 145.432 44.6C146.232 45.32 147.352 45.68 148.792 45.68C150.206 45.68 151.232 45.44 151.872 44.96C152.539 44.4533 152.979 43.8667 153.192 43.2H157.992C157.779 44.1333 157.446 45 156.992 45.8C156.539 46.6 155.939 47.2933 155.192 47.88C154.446 48.4667 153.539 48.9333 152.472 49.28C151.406 49.6 150.179 49.76 148.792 49.76ZM148.792 33.12C147.432 33.12 146.366 33.4533 145.592 34.12C144.819 34.7867 144.326 35.84 144.112 37.28H153.472C153.286 35.7867 152.792 34.72 151.992 34.08C151.219 33.44 150.152 33.12 148.792 33.12Z" fill="black"/>
<path d="M170.394 49.76C168.954 49.76 167.66 49.5467 166.514 49.12C165.367 48.6667 164.38 48.0267 163.554 47.2C162.727 46.3467 162.087 45.32 161.634 44.12C161.207 42.92 160.994 41.56 160.994 40.04V38.76C160.994 37.24 161.207 35.88 161.634 34.68C162.087 33.48 162.727 32.4667 163.554 31.64C164.38 30.7867 165.367 30.1467 166.514 29.72C167.66 29.2667 168.954 29.04 170.394 29.04C173.3 29.04 175.594 29.9333 177.274 31.72C178.954 33.5067 179.794 36.0667 179.794 39.4V40.96H165.634C165.767 42.64 166.234 43.8533 167.034 44.6C167.834 45.32 168.954 45.68 170.394 45.68C171.807 45.68 172.834 45.44 173.474 44.96C174.14 44.4533 174.58 43.8667 174.794 43.2H179.594C179.38 44.1333 179.047 45 178.594 45.8C178.14 46.6 177.54 47.2933 176.794 47.88C176.047 48.4667 175.14 48.9333 174.074 49.28C173.007 49.6 171.78 49.76 170.394 49.76ZM170.394 33.12C169.034 33.12 167.967 33.4533 167.194 34.12C166.42 34.7867 165.927 35.84 165.714 37.28H175.074C174.887 35.7867 174.394 34.72 173.594 34.08C172.82 33.44 171.754 33.12 170.394 33.12Z" fill="black"/>
<path d="M183.795 29.4H187.435L187.795 31.64C189.289 29.9067 191.355 29.04 193.995 29.04C196.449 29.04 198.355 29.7733 199.715 31.24C201.102 32.68 201.795 34.8667 201.795 37.8V49.4H197.155V37.8C197.155 36.3333 196.795 35.2267 196.075 34.48C195.382 33.7333 194.422 33.36 193.195 33.36C191.755 33.36 190.609 33.7467 189.755 34.52C188.929 35.2933 188.489 36.32 188.435 37.6V49.4H183.795V29.4Z" fill="black"/>
<path d="M214.003 49.76C211.257 49.76 209.217 49.16 207.883 47.96C206.577 46.7333 205.817 45.0133 205.603 42.8H210.483C210.697 43.9467 211.043 44.76 211.523 45.24C212.03 45.6933 212.857 45.92 214.003 45.92C215.363 45.92 216.283 45.7333 216.763 45.36C217.27 44.96 217.523 44.44 217.523 43.8C217.523 43.08 217.23 42.5333 216.643 42.16C216.083 41.7867 215.377 41.4933 214.523 41.28C213.67 41.04 212.75 40.8267 211.763 40.64C210.777 40.4267 209.857 40.12 209.003 39.72C208.15 39.2933 207.43 38.72 206.843 38C206.283 37.2533 206.003 36.2267 206.003 34.92C206.003 34.0933 206.163 33.32 206.483 32.6C206.803 31.88 207.297 31.2667 207.963 30.76C208.63 30.2267 209.457 29.8133 210.443 29.52C211.457 29.2 212.643 29.04 214.003 29.04C216.563 29.04 218.483 29.64 219.763 30.84C221.043 32.0133 221.79 33.6667 222.003 35.8H217.123C216.91 34.7067 216.577 33.9467 216.123 33.52C215.697 33.0933 214.99 32.88 214.003 32.88C212.857 32.88 212.043 33.0667 211.563 33.44C211.11 33.8133 210.883 34.2667 210.883 34.8C210.883 35.4667 211.163 35.96 211.723 36.28C212.31 36.5733 213.03 36.8267 213.883 37.04C214.737 37.2267 215.657 37.4267 216.643 37.64C217.63 37.8267 218.55 38.1467 219.403 38.6C220.257 39.0267 220.963 39.64 221.523 40.44C222.11 41.24 222.403 42.32 222.403 43.68C222.403 44.56 222.23 45.3733 221.883 46.12C221.563 46.8667 221.057 47.5067 220.363 48.04C219.697 48.5733 218.83 49 217.763 49.32C216.723 49.6133 215.47 49.76 214.003 49.76Z" fill="black"/>
<path d="M226.613 29.4H231.253V49.4H226.613V29.4ZM228.933 27C228.079 27 227.359 26.72 226.773 26.16C226.213 25.5733 225.933 24.8533 225.933 24C225.933 23.1467 226.213 22.44 226.773 21.88C227.359 21.2933 228.079 21 228.933 21C229.759 21 230.466 21.2933 231.053 21.88C231.639 22.44 231.933 23.1467 231.933 24C231.933 24.8533 231.639 25.5733 231.053 26.16C230.466 26.72 229.759 27 228.933 27Z" fill="black"/>
<path d="M243.367 48.96C242.194 48.96 241.127 48.7733 240.167 48.4C239.207 48 238.367 47.4133 237.647 46.64C236.954 45.8667 236.407 44.9067 236.007 43.76C235.634 42.5867 235.447 41.2133 235.447 39.64V38.36C235.447 36.8667 235.647 35.5467 236.047 34.4C236.447 33.2267 236.994 32.2533 237.687 31.48C238.407 30.68 239.247 30.08 240.207 29.68C241.167 29.2533 242.22 29.04 243.367 29.04C246.194 29.04 248.327 30.04 249.767 32.04L250.207 29.4H253.847V49.4C253.847 52.1733 253.127 54.2533 251.687 55.64C250.247 57.0533 248.007 57.76 244.967 57.76C243.554 57.76 242.327 57.6133 241.287 57.32C240.274 57.0267 239.42 56.6 238.727 56.04C238.034 55.48 237.5 54.7867 237.127 53.96C236.78 53.16 236.554 52.24 236.447 51.2H241.087C241.3 52.1333 241.687 52.84 242.247 53.32C242.807 53.8 243.714 54.04 244.967 54.04C246.407 54.04 247.474 53.6667 248.167 52.92C248.86 52.2 249.207 51.0267 249.207 49.4V46.6C248.487 47.3733 247.634 47.96 246.647 48.36C245.66 48.76 244.567 48.96 243.367 48.96ZM244.767 44.64C246.047 44.64 247.1 44.2 247.927 43.32C248.78 42.44 249.207 41.2133 249.207 39.64V38.36C249.207 36.7867 248.78 35.56 247.927 34.68C247.1 33.8 246.047 33.36 244.767 33.36C243.354 33.36 242.26 33.7733 241.487 34.6C240.714 35.4 240.327 36.6533 240.327 38.36V39.64C240.327 41.2933 240.727 42.5467 241.527 43.4C242.327 44.2267 243.407 44.64 244.767 44.64Z" fill="black"/>
<path d="M259.03 21.4H263.67V31.12C265.003 29.7333 266.856 29.04 269.23 29.04C271.683 29.04 273.59 29.7733 274.95 31.24C276.336 32.68 277.03 34.8667 277.03 37.8V49.4H272.39V37.8C272.39 36.3333 272.03 35.2267 271.31 34.48C270.616 33.7333 269.656 33.36 268.43 33.36C266.99 33.36 265.843 33.7467 264.99 34.52C264.163 35.2933 263.723 36.32 263.67 37.6V49.4H259.03V21.4Z" fill="black"/>
<path d="M279.247 29.4H282.847V23.8H287.487V29.4H292.447V33.48H287.487V42.32C287.487 43.36 287.714 44.12 288.167 44.6C288.647 45.08 289.354 45.32 290.287 45.32H292.847V49.4H289.447C287.314 49.4 285.674 48.84 284.527 47.72C283.407 46.5733 282.847 44.9333 282.847 42.8V33.48H279.247V29.4Z" fill="black"/>
<path d="M306.261 21.4H315.461C319.861 21.4 323.194 22.52 325.461 24.76C327.728 26.9733 328.861 30.1467 328.861 34.28V36.52C328.861 40.6 327.714 43.7733 325.421 46.04C323.128 48.28 319.808 49.4 315.461 49.4H306.261V21.4ZM311.061 25.64V45.16H315.461C318.234 45.16 320.314 44.4533 321.701 43.04C323.114 41.6267 323.821 39.4533 323.821 36.52V34.28C323.821 31.3733 323.114 29.2133 321.701 27.8C320.288 26.36 318.208 25.64 315.461 25.64H311.061Z" fill="black"/>
<path d="M342.848 49.76C339.355 49.76 336.768 48.9733 335.088 47.4C333.408 45.8 332.462 43.3333 332.248 40H337.368C337.502 41.92 337.982 43.28 338.808 44.08C339.662 44.8533 341.008 45.24 342.848 45.24C344.768 45.24 346.168 44.88 347.048 44.16C347.955 43.44 348.408 42.56 348.408 41.52C348.408 40.48 348.022 39.68 347.248 39.12C346.475 38.56 345.502 38.1067 344.328 37.76C343.155 37.3867 341.888 37.04 340.528 36.72C339.168 36.3733 337.902 35.9067 336.728 35.32C335.555 34.7333 334.582 33.9333 333.808 32.92C333.035 31.9067 332.648 30.5467 332.648 28.84C332.648 27.72 332.862 26.6933 333.288 25.76C333.715 24.8 334.342 23.9733 335.168 23.28C336.022 22.56 337.088 22.0133 338.368 21.64C339.648 21.24 341.142 21.04 342.848 21.04C346.262 21.04 348.755 21.7867 350.328 23.28C351.928 24.7467 352.835 26.9867 353.048 30H347.928C347.795 28.4 347.342 27.2533 346.568 26.56C345.822 25.8667 344.568 25.52 342.808 25.52C340.995 25.52 339.688 25.8533 338.888 26.52C338.088 27.16 337.688 27.9467 337.688 28.88C337.688 29.8667 338.075 30.6267 338.848 31.16C339.622 31.6667 340.595 32.0933 341.768 32.44C342.942 32.7867 344.208 33.1333 345.568 33.48C346.928 33.8 348.195 34.2667 349.368 34.88C350.542 35.4667 351.515 36.2933 352.288 37.36C353.062 38.4 353.448 39.8133 353.448 41.6C353.448 42.8 353.235 43.9067 352.808 44.92C352.382 45.9067 351.728 46.76 350.848 47.48C349.995 48.2 348.902 48.76 347.568 49.16C346.235 49.56 344.662 49.76 342.848 49.76Z" fill="black"/>
</svg>
