<svg width="24" height="24" viewBox="0 0 24 24" fill="none" xmlns="http://www.w3.org/2000/svg">
<path fill-rule="evenodd" clip-rule="evenodd" d="M11.5559 2.34508C11.5556 2.34523 11.5553 2.34538 11.555 2.34553L3.55726 6.34442L3.55505 6.34553C3.38844 6.42832 3.24823 6.55594 3.15019 6.71405C3.05218 6.87211 3.00018 7.05436 3.00005 7.24034C3.00005 7.24027 3.00005 7.2404 3.00005 7.24034V16.767C2.99875 16.9533 3.04954 17.1363 3.14672 17.2954C3.24374 17.4541 3.38313 17.5827 3.5492 17.6665C3.54893 17.6664 3.54948 17.6667 3.5492 17.6665L11.5473 21.6656C11.6862 21.7351 11.8397 21.7714 11.995 21.7714C12.1504 21.7714 12.3036 21.7352 12.4425 21.6657L20.4428 17.6656L20.445 17.6645C20.6117 17.5817 20.7519 17.4541 20.8499 17.2959C20.948 17.1378 20.9999 16.9555 21 16.7695V7.24053C20.9999 7.05449 20.948 6.87216 20.8499 6.71405C20.7519 6.55594 20.6117 6.42832 20.445 6.34553L20.4428 6.34442L12.445 2.34553C12.4447 2.34538 12.4445 2.34523 12.4442 2.34508C12.3061 2.27666 12.1541 2.24106 12 2.24106C11.846 2.24106 11.694 2.27666 11.5559 2.34508ZM12.89 1.45L13.335 0.554467C12.9202 0.34833 12.4633 0.241058 12 0.241058C11.5368 0.241058 11.0799 0.34833 10.665 0.554467L10.6628 0.55557L2.66505 4.55447C2.66464 4.55467 2.66423 4.55487 2.66381 4.55508C2.16454 4.80346 1.74436 5.18609 1.45047 5.66003C1.15633 6.13436 1.00034 6.68134 1.00005 7.23947L1.00005 16.7569C0.996878 17.3146 1.14927 17.8623 1.44015 18.3383C1.7317 18.8153 2.15077 19.2015 2.65007 19.453L2.65283 19.4544L10.6525 23.4543C11.0693 23.6628 11.529 23.7714 11.995 23.7714C12.461 23.7714 12.9206 23.6629 13.3373 23.4544C13.3374 23.4544 13.3372 23.4545 13.3373 23.4544L21.335 19.4555C21.3354 19.4554 21.3357 19.4552 21.336 19.455C21.8354 19.2067 22.2557 18.824 22.5496 18.35C22.8438 17.8756 22.9998 17.3287 23 16.7705V7.24C22.9998 6.68187 22.8438 6.13436 22.5496 5.66003C22.2557 5.18611 21.8356 4.80349 21.3363 4.5551C21.3359 4.55489 21.3355 4.55468 21.335 4.55447L13.3373 0.55557L12.89 1.45Z" fill="#121314"/>
<path fill-rule="evenodd" clip-rule="evenodd" d="M1.42562 5.71278C1.67261 5.21881 2.27328 5.01858 2.76726 5.26557L12 9.88196L21.2328 5.26557C21.7268 5.01858 22.3275 5.21881 22.5745 5.71278C22.8215 6.20676 22.6212 6.80744 22.1273 7.05442L12.4473 11.8944C12.1657 12.0352 11.8344 12.0352 11.5528 11.8944L1.87283 7.05442C1.37886 6.80744 1.17863 6.20676 1.42562 5.71278Z" fill="#121314"/>
<path fill-rule="evenodd" clip-rule="evenodd" d="M12 10C12.5523 10 13 10.4477 13 11V22.76C13 23.3123 12.5523 23.76 12 23.76C11.4478 23.76 11 23.3123 11 22.76V11C11 10.4477 11.4478 10 12 10Z" fill="#121314"/>
</svg>
