<svg width="24" height="24" viewBox="0 0 24 24" fill="none" xmlns="http://www.w3.org/2000/svg">
<path d="M18.9928 17.8727C18.4955 17.8727 18.0976 17.5714 17.9982 17.0691C17.8987 16.5669 18.1971 15.9642 18.7938 15.8637C20.9819 15.462 22.3743 13.2521 21.877 11.1427C21.4792 9.23421 19.8879 7.92839 17.9982 7.92839H16.7052C16.208 7.92839 15.8101 7.62705 15.7107 7.12481C14.7161 3.40826 10.9367 1.09796 7.2568 2.10244C5.46657 2.60468 3.97471 3.7096 3.07959 5.31676C2.08502 7.02437 1.78665 8.83242 2.28393 10.7409C2.78122 12.6494 3.97471 14.1561 5.66548 15.1606C6.16277 15.3615 6.36168 15.9642 6.06331 16.4664C5.76494 16.9687 5.1682 17.1696 4.67091 16.8682C2.48285 15.6629 0.990988 13.6539 0.294787 11.2432C-0.301957 8.93287 -0.00358485 6.42168 1.28936 4.41273C2.48285 2.30333 4.47199 0.897067 6.75951 0.294382C11.2351 -0.910988 15.9096 1.70065 17.4014 6.01989H17.9982C20.783 6.01989 23.2694 8.02884 23.8662 10.8414C24.5624 14.0557 22.4738 17.27 19.1917 17.9731C19.0922 17.8727 19.0922 17.8727 18.9928 17.8727Z" fill="#121314"/>
<path d="M11.0362 24C10.8373 24 10.6383 23.8996 10.4394 23.7991C9.94215 23.4978 9.84269 22.8951 10.1411 22.3928L13.1248 17.9731H9.04703C8.6492 17.9731 8.35083 17.7723 8.15192 17.4709C7.953 17.1696 7.953 16.7678 8.15192 16.4664L12.1302 10.4396C12.4286 9.93735 13.0253 9.8369 13.5226 10.1382C14.0199 10.4396 14.1194 11.0423 13.821 11.5445L10.8373 15.9642H15.0145C15.4123 15.9642 15.7107 16.1651 15.9096 16.4664C16.1085 16.7678 16.1085 17.1696 15.9096 17.4709L11.9313 23.4978C11.6329 23.7991 11.3346 24 11.0362 24Z" fill="#121314"/>
</svg>
