<svg width="24" height="24" viewBox="0 0 24 24" fill="none" xmlns="http://www.w3.org/2000/svg">
<path fill-rule="evenodd" clip-rule="evenodd" d="M11.4551 1.16156C11.7865 0.946148 12.2137 0.946148 12.5451 1.16156L22.5451 7.66156C22.8289 7.84602 23.0001 8.16152 23.0001 8.5V15.5C23.0001 15.8385 22.8289 16.154 22.5451 16.3384L12.5451 22.8384C12.2137 23.0539 11.7865 23.0539 11.4551 22.8384L1.4551 16.3384C1.1713 16.154 1.00009 15.8385 1.00009 15.5V8.5C1.00009 8.16152 1.1713 7.84602 1.4551 7.66156L11.4551 1.16156ZM3.00009 9.04269V14.9573L12.0001 20.8073L21.0001 14.9573V9.04269L12.0001 3.19269L3.00009 9.04269Z" fill="#121314"/>
<path fill-rule="evenodd" clip-rule="evenodd" d="M12.0001 14.5C12.5524 14.5 13.0001 14.9477 13.0001 15.5V22C13.0001 22.5523 12.5524 23 12.0001 23C11.4478 23 11.0001 22.5523 11.0001 22V15.5C11.0001 14.9477 11.4478 14.5 12.0001 14.5Z" fill="#121314"/>
<path fill-rule="evenodd" clip-rule="evenodd" d="M1.18085 7.92654C1.49757 7.47409 2.1211 7.36405 2.57355 7.68077L12.0001 14.2793L21.4266 7.68077C21.8791 7.36405 22.5026 7.47409 22.8193 7.92654C23.136 8.37899 23.026 9.00252 22.5735 9.31923L12.5735 16.3192C12.2292 16.5603 11.7709 16.5603 11.4266 16.3192L1.42662 9.31923C0.974174 9.00252 0.864139 8.37899 1.18085 7.92654Z" fill="#121314"/>
<path fill-rule="evenodd" clip-rule="evenodd" d="M11.4266 7.68077C11.7709 7.43974 12.2292 7.43974 12.5735 7.68077L22.5735 14.6808C23.026 14.9975 23.136 15.621 22.8193 16.0735C22.5026 16.5259 21.8791 16.6359 21.4266 16.3192L12.0001 9.72066L2.57355 16.3192C2.1211 16.6359 1.49757 16.5259 1.18085 16.0735C0.864139 15.621 0.974174 14.9975 1.42662 14.6808L11.4266 7.68077Z" fill="#121314"/>
<path fill-rule="evenodd" clip-rule="evenodd" d="M12.0001 1C12.5524 1 13.0001 1.44772 13.0001 2V8.5C13.0001 9.05228 12.5524 9.5 12.0001 9.5C11.4478 9.5 11.0001 9.05228 11.0001 8.5V2C11.0001 1.44772 11.4478 1 12.0001 1Z" fill="#121314"/>
</svg>
