<svg width="24" height="24" viewBox="0 0 24 24" fill="none" xmlns="http://www.w3.org/2000/svg">
<path fill-rule="evenodd" clip-rule="evenodd" d="M12 3C7.02944 3 3 7.02944 3 12C3 16.9706 7.02944 21 12 21C16.9706 21 21 16.9706 21 12C21 7.02944 16.9706 3 12 3ZM1 12C1 5.92487 5.92487 1 12 1C18.0751 1 23 5.92487 23 12C23 18.0751 18.0751 23 12 23C5.92487 23 1 18.0751 1 12Z" fill="#121314"/>
<path fill-rule="evenodd" clip-rule="evenodd" d="M16.9469 7.0529C17.2147 7.32073 17.3083 7.7169 17.1885 8.07623L15.0685 14.4362C14.9689 14.7348 14.7346 14.9692 14.436 15.0687L8.07602 17.1887C7.71669 17.3085 7.32052 17.2149 7.05269 16.9471C6.78485 16.6793 6.69133 16.2831 6.81111 15.9238L8.93111 9.56378C9.03064 9.26517 9.26496 9.03086 9.56356 8.93132L15.9236 6.81132C16.2829 6.69154 16.6791 6.78507 16.9469 7.0529ZM10.6704 10.6706L9.34093 14.6589L13.3292 13.3294L14.6587 9.34115L10.6704 10.6706Z" fill="#121314"/>
</svg>
