<svg width="24" height="24" viewBox="0 0 24 24" fill="none" xmlns="http://www.w3.org/2000/svg">
<path fill-rule="evenodd" clip-rule="evenodd" d="M12 3C7.02944 3 3 7.02944 3 12C3 16.9706 7.02944 21 12 21C16.9706 21 21 16.9706 21 12C21 7.02944 16.9706 3 12 3ZM1 12C1 5.92487 5.92487 1 12 1C18.0751 1 23 5.92487 23 12C23 18.0751 18.0751 23 12 23C5.92487 23 1 18.0751 1 12Z" fill="#121314"/>
<path fill-rule="evenodd" clip-rule="evenodd" d="M12.2581 8.02432C11.7926 7.94447 11.3138 8.03195 10.9066 8.27127C10.4994 8.51058 10.1901 8.88629 10.0333 9.33184C9.85006 9.85283 9.27915 10.1266 8.75816 9.94333C8.23717 9.76006 7.96339 9.18915 8.14667 8.66816C8.46014 7.77705 9.07887 7.02563 9.89327 6.547C10.7077 6.06837 11.6652 5.89341 12.5962 6.05311C13.5273 6.2128 14.3718 6.69686 14.9801 7.41953C15.5883 8.14205 15.9213 9.05648 15.92 10.0009C15.9197 11.0711 15.3569 11.889 14.7751 12.4464C14.1931 13.004 13.5031 13.3909 13.0159 13.6243C12.977 13.6429 12.9487 13.6696 12.933 13.6926C12.9257 13.7033 12.9225 13.7113 12.9211 13.7154C12.92 13.719 12.92 13.7205 12.92 13.7207V14C12.92 14.5523 12.4723 15 11.92 15C11.3677 15 10.92 14.5523 10.92 14V13.7208C10.92 12.8509 11.4686 12.1479 12.1518 11.8206C12.5483 11.6307 13.0263 11.3522 13.3915 11.0023C13.7567 10.6523 13.92 10.321 13.92 10L13.92 9.99851C13.9207 9.52619 13.7542 9.06886 13.4501 8.70753C13.1459 8.34619 12.7236 8.10417 12.2581 8.02432Z" fill="#121314"/>
<path d="M13 17C13 17.5523 12.5523 18 12 18C11.4477 18 11 17.5523 11 17C11 16.4477 11.4477 16 12 16C12.5523 16 13 16.4477 13 17Z" fill="#121314"/>
</svg>
