<svg width="24" height="24" viewBox="0 0 24 24" fill="none" xmlns="http://www.w3.org/2000/svg">
<path fill-rule="evenodd" clip-rule="evenodd" d="M12 1C12.5523 1 13 1.44772 13 2V6C13 6.55228 12.5523 7 12 7C11.4477 7 11 6.55228 11 6V2C11 1.44772 11.4477 1 12 1Z" fill="#121314"/>
<path fill-rule="evenodd" clip-rule="evenodd" d="M12 17C12.5523 17 13 17.4477 13 18V22C13 22.5523 12.5523 23 12 23C11.4477 23 11 22.5523 11 22V18C11 17.4477 11.4477 17 12 17Z" fill="#121314"/>
<path fill-rule="evenodd" clip-rule="evenodd" d="M4.22307 4.22289C4.61359 3.83236 5.24676 3.83236 5.63728 4.22289L8.46728 7.05289C8.85781 7.44341 8.85781 8.07658 8.46728 8.4671C8.07676 8.85762 7.44359 8.85762 7.05307 8.4671L4.22307 5.6371C3.83254 5.24658 3.83254 4.61341 4.22307 4.22289Z" fill="#121314"/>
<path fill-rule="evenodd" clip-rule="evenodd" d="M15.5331 15.5329C15.9237 15.1424 16.5568 15.1424 16.9473 15.5329L19.7773 18.3629C20.1679 18.7534 20.1679 19.3866 19.7773 19.7771C19.3868 20.1676 18.7537 20.1676 18.3631 19.7771L15.5331 16.9471C15.1426 16.5566 15.1426 15.9234 15.5331 15.5329Z" fill="#121314"/>
<path fill-rule="evenodd" clip-rule="evenodd" d="M1 12C1 11.4477 1.44772 11 2 11H6C6.55228 11 7 11.4477 7 12C7 12.5523 6.55228 13 6 13H2C1.44772 13 1 12.5523 1 12Z" fill="#121314"/>
<path fill-rule="evenodd" clip-rule="evenodd" d="M17 12C17 11.4477 17.4477 11 18 11H22C22.5523 11 23 11.4477 23 12C23 12.5523 22.5523 13 22 13H18C17.4477 13 17 12.5523 17 12Z" fill="#121314"/>
<path fill-rule="evenodd" clip-rule="evenodd" d="M8.46728 15.5329C8.85781 15.9234 8.85781 16.5566 8.46728 16.9471L5.63728 19.7771C5.24676 20.1676 4.61359 20.1676 4.22307 19.7771C3.83254 19.3866 3.83254 18.7534 4.22307 18.3629L7.05307 15.5329C7.44359 15.1424 8.07676 15.1424 8.46728 15.5329Z" fill="#121314"/>
<path fill-rule="evenodd" clip-rule="evenodd" d="M19.7773 4.22289C20.1679 4.61341 20.1679 5.24658 19.7773 5.6371L16.9473 8.4671C16.5568 8.85762 15.9237 8.85762 15.5331 8.4671C15.1426 8.07658 15.1426 7.44341 15.5331 7.05289L18.3631 4.22289C18.7537 3.83236 19.3868 3.83236 19.7773 4.22289Z" fill="#121314"/>
</svg>
