<svg width="24" height="24" viewBox="0 0 24 24" fill="none" xmlns="http://www.w3.org/2000/svg">
<path fill-rule="evenodd" clip-rule="evenodd" d="M11.5559 2.34511C11.5556 2.34526 11.5553 2.34541 11.555 2.34556L3.55726 6.34445L3.55505 6.34556C3.38844 6.42835 3.24823 6.55597 3.15019 6.71408C3.05218 6.87214 3.00018 7.05439 3.00005 7.24037C3.00005 7.2403 3.00005 7.24043 3.00005 7.24037V16.767C2.99875 16.9534 3.04954 17.1364 3.14672 17.2954C3.24374 17.4542 3.38313 17.5827 3.5492 17.6666C3.54893 17.6664 3.54948 17.6667 3.5492 17.6666L11.5473 21.6656C11.6862 21.7351 11.8397 21.7715 11.995 21.7715C12.1504 21.7715 12.3036 21.7353 12.4425 21.6657L20.4428 17.6656L20.445 17.6645C20.6117 17.5817 20.7519 17.4541 20.8499 17.296C20.948 17.1379 20.9999 16.9555 21 16.7695V7.24056C20.9999 7.05452 20.948 6.87219 20.8499 6.71408C20.7519 6.55597 20.6117 6.42835 20.445 6.34556L20.4428 6.34445L12.445 2.34556C12.4447 2.34541 12.4445 2.34526 12.4442 2.34511C12.3061 2.27669 12.1541 2.24109 12 2.24109C11.846 2.24109 11.694 2.27669 11.5559 2.34511ZM12.89 1.45003L13.335 0.554497C12.9202 0.348361 12.4633 0.241089 12 0.241089C11.5368 0.241089 11.0799 0.348361 10.665 0.554497L10.6628 0.555601L2.66505 4.5545C2.66464 4.5547 2.66423 4.55491 2.66381 4.55511C2.16454 4.80349 1.74436 5.18613 1.45047 5.66006C1.15633 6.13439 1.00034 6.68137 1.00005 7.2395L1.00005 16.7569C0.996878 17.3147 1.14927 17.8623 1.44015 18.3383C1.7317 18.8154 2.15077 19.2015 2.65007 19.4531L2.65283 19.4545L10.6525 23.4543C11.0693 23.6629 11.529 23.7715 11.995 23.7715C12.461 23.7715 12.9206 23.6629 13.3373 23.4545C13.3374 23.4544 13.3372 23.4545 13.3373 23.4545L21.335 19.4556C21.3354 19.4554 21.3357 19.4552 21.336 19.4551C21.8354 19.2067 22.2557 18.824 22.5496 18.35C22.8438 17.8757 22.9998 17.3287 23 16.7706V7.24003C22.9998 6.6819 22.8438 6.13439 22.5496 5.66006C22.2557 5.18614 21.8356 4.80352 21.3363 4.55513C21.3359 4.55492 21.3355 4.55471 21.335 4.5545L13.3373 0.555601L12.89 1.45003Z" fill="#121314"/>
<path fill-rule="evenodd" clip-rule="evenodd" d="M1.42562 5.71281C1.67261 5.21884 2.27328 5.01861 2.76726 5.2656L12 9.88199L21.2328 5.2656C21.7268 5.01861 22.3275 5.21884 22.5745 5.71281C22.8215 6.20679 22.6212 6.80747 22.1273 7.05445L12.4473 11.8945C12.1657 12.0352 11.8344 12.0352 11.5528 11.8945L1.87283 7.05445C1.37886 6.80747 1.17863 6.20679 1.42562 5.71281Z" fill="#121314"/>
<path fill-rule="evenodd" clip-rule="evenodd" d="M12 10C12.5523 10 13 10.4477 13 11V22.76C13 23.3123 12.5523 23.76 12 23.76C11.4478 23.76 11 23.3123 11 22.76V11C11 10.4477 11.4478 10 12 10Z" fill="#121314"/>
<path fill-rule="evenodd" clip-rule="evenodd" d="M6.10562 3.05281C6.35261 2.55884 6.95328 2.35861 7.44726 2.6056L17.4473 7.6056C17.9412 7.85259 18.1415 8.45326 17.8945 8.94724C17.6475 9.44122 17.0468 9.64144 16.5528 9.39445L6.55283 4.39445C6.05886 4.14747 5.85863 3.54679 6.10562 3.05281Z" fill="#121314"/>
</svg>
