<svg width="24" height="24" viewBox="0 0 24 24" fill="none" xmlns="http://www.w3.org/2000/svg">
<g clip-path="url(#clip0)">
<path fill-rule="evenodd" clip-rule="evenodd" d="M17.9917 0.882866C20.4042 2.18728 21.8871 4.86612 23.0375 8.71243C24.1894 12.5387 24.4091 15.581 23.0971 17.994C21.7868 20.4038 19.1106 21.8868 15.2881 23.0376C11.4615 24.1896 8.41901 24.4094 6.00586 23.0973C3.59606 21.787 2.11306 19.1108 0.962247 15.2883C-0.18978 11.4617 -0.409591 8.41924 0.902512 6.00609C2.21279 3.59629 4.88898 2.1133 8.71151 0.962478C12.5344 -0.188453 15.5775 -0.422404 17.9917 0.882866ZM17.0404 2.64218C15.3671 1.73745 13.0052 1.7585 9.28807 2.87757C5.57061 3.99675 3.57179 5.28376 2.65958 6.96146C1.74918 8.63581 1.75937 10.9983 2.87734 14.7117C3.99652 18.4292 5.28352 20.428 6.96123 21.3402C8.63558 22.2506 10.9981 22.2404 14.7115 21.1225C18.429 20.0033 20.4278 18.7163 21.34 17.0386C22.2504 15.3642 22.2402 13.0017 21.1222 9.2883L21.1217 9.28656C20.0022 5.54344 18.7151 3.54764 17.0404 2.64218Z" fill="#121314"/>
<path fill-rule="evenodd" clip-rule="evenodd" d="M12.2446 5.04447C12.7668 4.86471 13.3359 5.14232 13.5156 5.66453L17.0956 16.0645C17.2754 16.5867 16.9978 17.1558 16.4756 17.3356C15.9534 17.5153 15.3843 17.2377 15.2045 16.7155L11.6245 6.3155C11.4448 5.79329 11.7224 5.22423 12.2446 5.04447Z" fill="#121314"/>
<path fill-rule="evenodd" clip-rule="evenodd" d="M7.5244 6.66447C8.04661 6.48471 8.61567 6.76232 8.79543 7.28453L12.3754 17.6845C12.5552 18.2067 12.2776 18.7758 11.7554 18.9556C11.2332 19.1353 10.6641 18.8577 10.4843 18.3355L6.90433 7.9355C6.72457 7.41329 7.00218 6.84423 7.5244 6.66447Z" fill="#121314"/>
<path fill-rule="evenodd" clip-rule="evenodd" d="M17.3356 7.52452C17.5153 8.04673 17.2377 8.61579 16.7155 8.79555L6.3155 12.3756C5.79329 12.5553 5.22423 12.2777 5.04447 11.7555C4.86471 11.2333 5.14232 10.6642 5.66453 10.4845L16.0645 6.90446C16.5867 6.7247 17.1558 7.00231 17.3356 7.52452Z" fill="#121314"/>
<path fill-rule="evenodd" clip-rule="evenodd" d="M18.9557 12.2445C19.1354 12.7667 18.8578 13.3358 18.3356 13.5155L7.93562 17.0955C7.41341 17.2753 6.84435 16.9977 6.66459 16.4755C6.48483 15.9532 6.76244 15.3842 7.28465 15.2044L17.6846 11.6244C18.2069 11.4447 18.7759 11.7223 18.9557 12.2445Z" fill="#121314"/>
</g>
<defs>
<clipPath id="clip0">
<path d="M0 0H24V24H0V0Z" fill="white"/>
</clipPath>
</defs>
</svg>
