<svg width="24" height="24" viewBox="0 0 24 24" fill="none" xmlns="http://www.w3.org/2000/svg">
<path fill-rule="evenodd" clip-rule="evenodd" d="M12 3C7.02944 3 3 7.02944 3 12C3 16.9706 7.02944 21 12 21C16.9706 21 21 16.9706 21 12C21 7.02944 16.9706 3 12 3ZM1 12C1 5.92487 5.92487 1 12 1C18.0751 1 23 5.92487 23 12C23 18.0751 18.0751 23 12 23C5.92487 23 1 18.0751 1 12Z" fill="#121314"/>
<path fill-rule="evenodd" clip-rule="evenodd" d="M4.22307 4.22289C4.61359 3.83236 5.24676 3.83236 5.63728 4.22289L19.7773 18.3629C20.1678 18.7534 20.1678 19.3866 19.7773 19.7771C19.3868 20.1676 18.7536 20.1676 18.3631 19.7771L4.22307 5.6371C3.83254 5.24658 3.83254 4.61341 4.22307 4.22289Z" fill="#121314"/>
</svg>
