<svg width="24" height="24" viewBox="0 0 24 24" fill="none" xmlns="http://www.w3.org/2000/svg">
<path fill-rule="evenodd" clip-rule="evenodd" d="M20.5641 3.31561C20.3205 3.10653 20.0087 2.99416 19.6877 2.99984L19.67 3H18V12H19.67L19.6877 12.0002C20.0087 12.0058 20.3205 11.8935 20.5641 11.6844C20.793 11.4879 20.9466 11.2188 21 10.9231V4.07686C20.9466 3.78114 20.793 3.5121 20.5641 3.31561ZM16 12.7878L12.3922 20.9054C12.0908 20.8092 11.8137 20.6421 11.5858 20.4142C11.2107 20.0391 11 19.5304 11 19V15C11 14.4477 10.5523 14 10 14H4.34003L4.32871 14.0001C4.18375 14.0017 4.04017 13.9718 3.90792 13.9125C3.77567 13.8531 3.6579 13.7657 3.56278 13.6563C3.46766 13.5469 3.39745 13.4181 3.35704 13.2789C3.31667 13.1399 3.30698 12.9938 3.32862 12.8506C3.32859 12.8508 3.32865 12.8504 3.32862 12.8506L4.70873 3.84993C4.74489 3.61148 4.86601 3.39413 5.04977 3.23793C5.23354 3.08173 5.46756 2.99721 5.70873 2.99993L16 3V12.7878ZM19.662 0.999995C20.4696 0.988062 21.2538 1.27182 21.8668 1.79802C22.4822 2.3263 22.8823 3.06218 22.991 3.86595C22.997 3.91038 23 3.95516 23 4V11C23 11.0448 22.997 11.0896 22.991 11.134C22.8823 11.9378 22.4822 12.6737 21.8668 13.202C21.2538 13.7282 20.4696 14.0119 19.662 14H17.6499L13.9138 22.4061C13.7533 22.7673 13.3952 23 13 23C11.9392 23 10.9217 22.5786 10.1716 21.8284C9.42146 21.0783 9.00003 20.0609 9.00003 19V16H4.34514C3.91239 16.004 3.48387 15.9143 3.089 15.7371C2.69224 15.559 2.33893 15.2968 2.05357 14.9687C1.7682 14.6405 1.5576 14.2542 1.43634 13.8366C1.31509 13.4189 1.28609 12.9799 1.35135 12.5499L2.73133 3.55006C2.73138 3.54976 2.73129 3.55036 2.73133 3.55006C2.83999 2.83505 3.20342 2.18245 3.75448 1.71405C4.30419 1.24679 5.00382 0.993336 5.72511 0.999995H19.662Z" fill="#121314"/>
</svg>
