<svg width="24" height="24" viewBox="0 0 24 24" fill="none" xmlns="http://www.w3.org/2000/svg">
<path fill-rule="evenodd" clip-rule="evenodd" d="M1.46447 15.4645C2.40215 14.5268 3.67392 14 5 14H12C13.3261 14 14.5979 14.5268 15.5355 15.4645C16.4732 16.4021 17 17.6739 17 19V21C17 21.5523 16.5523 22 16 22C15.4477 22 15 21.5523 15 21V19C15 18.2044 14.6839 17.4413 14.1213 16.8787C13.5587 16.3161 12.7956 16 12 16H5C4.20435 16 3.44129 16.3161 2.87868 16.8787C2.31607 17.4413 2 18.2044 2 19V21C2 21.5523 1.55228 22 1 22C0.447715 22 0 21.5523 0 21V19C0 17.6739 0.526784 16.4021 1.46447 15.4645Z" fill="#121314"/>
<path fill-rule="evenodd" clip-rule="evenodd" d="M8.5 4C6.84315 4 5.5 5.34315 5.5 7C5.5 8.65685 6.84315 10 8.5 10C10.1569 10 11.5 8.65685 11.5 7C11.5 5.34315 10.1569 4 8.5 4ZM3.5 7C3.5 4.23858 5.73858 2 8.5 2C11.2614 2 13.5 4.23858 13.5 7C13.5 9.76142 11.2614 12 8.5 12C5.73858 12 3.5 9.76142 3.5 7Z" fill="#121314"/>
<path fill-rule="evenodd" clip-rule="evenodd" d="M17.2929 7.29289C17.6834 6.90237 18.3166 6.90237 18.7071 7.29289L23.7071 12.2929C24.0976 12.6834 24.0976 13.3166 23.7071 13.7071C23.3166 14.0976 22.6834 14.0976 22.2929 13.7071L17.2929 8.70711C16.9024 8.31658 16.9024 7.68342 17.2929 7.29289Z" fill="#121314"/>
<path fill-rule="evenodd" clip-rule="evenodd" d="M23.7071 7.29289C24.0976 7.68342 24.0976 8.31658 23.7071 8.70711L18.7071 13.7071C18.3166 14.0976 17.6834 14.0976 17.2929 13.7071C16.9024 13.3166 16.9024 12.6834 17.2929 12.2929L22.2929 7.29289C22.6834 6.90237 23.3166 6.90237 23.7071 7.29289Z" fill="#121314"/>
</svg>
