<svg width="24" height="24" viewBox="0 0 24 24" fill="none" xmlns="http://www.w3.org/2000/svg">
<path d="M4.99985 13.5C4.69985 13.5 4.39985 13.4 4.19985 13.1C3.79985 12.7 3.89985 12 4.29985 11.7C8.79985 7.99998 15.1999 7.99998 19.6999 11.7C20.0999 12.1 20.1999 12.7 19.7999 13.1C19.3999 13.5 18.7999 13.6 18.3999 13.2C14.6999 10.1 9.29985 10.1 5.59985 13.2C5.49985 13.5 5.19985 13.5 4.99985 13.5Z" fill="#121314"/>
<path d="M1.39985 9.99998C1.09985 9.99998 0.799855 9.89997 0.599855 9.69998C0.199855 9.29997 0.299855 8.69998 0.699855 8.29998C7.09985 2.69998 16.7999 2.69998 23.1999 8.29998C23.5999 8.69998 23.6999 9.29997 23.2999 9.69998C22.8999 10.1 22.2999 10.2 21.8999 9.79998C16.1999 4.79998 7.69985 4.79998 2.09985 9.79998C1.89985 9.89998 1.69985 9.99998 1.39985 9.99998Z" fill="#121314"/>
<path d="M15.4999 17.1C15.2999 17.1 15.0999 17 14.8999 16.9C13.1999 15.7 10.7999 15.7 9.09986 16.9C8.59986 17.2 7.99985 17.1 7.69985 16.7C7.39985 16.2 7.49985 15.6 7.89985 15.3C10.2999 13.6 13.5999 13.6 15.9999 15.3C16.4999 15.6 16.5999 16.2 16.1999 16.7C16.0999 17 15.7999 17.1 15.4999 17.1Z" fill="#121314"/>
<path d="M11.9999 21C11.8999 21 11.6999 21 11.5999 20.9C11.4999 20.9 11.3999 20.8 11.2999 20.7C11.0999 20.5 10.9999 20.3 10.9999 20C10.9999 19.9 10.9999 19.7 11.0999 19.6C11.1999 19.5 11.1999 19.4 11.2999 19.3C11.6999 18.9 12.2999 18.9 12.6999 19.3C12.8999 19.5 12.9999 19.8 12.9999 20C12.9999 20.3 12.8999 20.5 12.6999 20.7C12.4999 20.9 12.2999 21 11.9999 21Z" fill="#121314"/>
</svg>
