<svg width="48" height="48" viewBox="0 0 48 48" fill="none" xmlns="http://www.w3.org/2000/svg">
<path d="M38 8H10C8.4087 8 6.88258 8.63214 5.75736 9.75736C4.63214 10.8826 4 12.4087 4 14V34C4 35.5913 4.63214 37.1174 5.75736 38.2426C6.88258 39.3679 8.4087 40 10 40H38C39.5913 40 41.1174 39.3679 42.2426 38.2426C43.3679 37.1174 44 35.5913 44 34V14C44 12.4087 43.3679 10.8826 42.2426 9.75736C41.1174 8.63214 39.5913 8 38 8ZM40 28.5H34C32.8065 28.5 31.6619 28.0259 30.818 27.182C29.9741 26.3381 29.5 25.1935 29.5 24C29.5 22.8065 29.9741 21.6619 30.818 20.818C31.6619 19.9741 32.8065 19.5 34 19.5H40V28.5ZM40 16H34C31.8783 16 29.8434 16.8429 28.3431 18.3431C26.8429 19.8434 26 21.8783 26 24C26 26.1217 26.8429 28.1566 28.3431 29.6569C29.8434 31.1571 31.8783 32 34 32H40V34C40 34.5304 39.7893 35.0391 39.4142 35.4142C39.0391 35.7893 38.5304 36 38 36H10C9.46957 36 8.96086 35.7893 8.58579 35.4142C8.21071 35.0391 8 34.5304 8 34V14C8 13.4696 8.21071 12.9609 8.58579 12.5858C8.96086 12.2107 9.46957 12 10 12H38C38.5304 12 39.0391 12.2107 39.4142 12.5858C39.7893 12.9609 40 13.4696 40 14V16ZM32 24C32 24.3956 32.1173 24.7822 32.3371 25.1111C32.5568 25.44 32.8692 25.6964 33.2346 25.8478C33.6001 25.9991 34.0022 26.0387 34.3902 25.9616C34.7781 25.8844 35.1345 25.6939 35.4142 25.4142C35.6939 25.1345 35.8844 24.7781 35.9616 24.3902C36.0387 24.0022 35.9991 23.6001 35.8478 23.2346C35.6964 22.8692 35.44 22.5568 35.1111 22.3371C34.7822 22.1173 34.3956 22 34 22C33.4696 22 32.9609 22.2107 32.5858 22.5858C32.2107 22.9609 32 23.4696 32 24Z" fill="black"/>
</svg>
