<svg width="24" height="24" viewBox="0 0 24 24" xmlns="http://www.w3.org/2000/svg">
<path fill-rule="evenodd" clip-rule="evenodd" d="M13.8815 21.8237C13.4929 22.1402 13.1678 22.3878 12.9379 22.5576L12 23.2103L11.0621 22.5576C10.8322 22.3878 10.5071 22.1402 10.1185 21.8237C9.34284 21.192 8.30623 20.2794 7.26638 19.1568C5.22493 16.953 3 13.7572 3 10.1818C3 7.75381 3.94288 5.42084 5.62814 3.69728C7.31415 1.97296 9.60571 1 12 1C14.3943 1 16.6859 1.97296 18.3719 3.69728C20.0571 5.42084 21 7.75381 21 10.1818C21 13.7572 18.7751 16.953 16.7336 19.1568C15.6938 20.2794 14.6572 21.192 13.8815 21.8237ZM7.05815 5.09552C8.37273 3.75107 10.1508 3 12 3C13.8492 3 15.6273 3.75107 16.9418 5.09552C18.2572 6.44073 19 8.26992 19 10.1818C19 12.9701 17.2249 15.6834 15.2664 17.7977C14.3062 18.8342 13.3428 19.683 12.6185 20.2729C12.3835 20.4643 12.1745 20.6277 12 20.7608C11.8255 20.6277 11.6165 20.4643 11.3815 20.2729C10.6572 19.683 9.69377 18.8342 8.73362 17.7977C6.77507 15.6834 5 12.9701 5 10.1818C5 8.26992 5.74283 6.44073 7.05815 5.09552Z"/>
<path fill-rule="evenodd" clip-rule="evenodd" d="M8 10C8 7.79086 9.79086 6 12 6C14.2091 6 16 7.79086 16 10C16 12.2091 14.2091 14 12 14C9.79086 14 8 12.2091 8 10ZM10 10C10 8.89543 10.8954 8 12 8C13.1046 8 14 8.89543 14 10C14 11.1046 13.1046 12 12 12C10.8954 12 10 11.1046 10 10Z"/>
</svg>
