<svg width="24" height="24" viewBox="0 0 24 24" xmlns="http://www.w3.org/2000/svg">
<path d="M12.0004 7.99989C12.5527 7.99989 13.0004 8.4476 13.0004 8.99989V12.9999C13.0004 13.5522 12.5527 13.9999 12.0004 13.9999C11.4481 13.9999 11.0004 13.5522 11.0004 12.9999V8.99989C11.0004 8.4476 11.4481 7.99989 12.0004 7.99989Z"/>
<path d="M12.0004 17.9999C12.5527 17.9999 13.0004 17.5522 13.0004 16.9999C13.0004 16.4476 12.5527 15.9999 12.0004 15.9999C11.4481 15.9999 11.0004 16.4476 11.0004 16.9999C11.0004 17.5522 11.4481 17.9999 12.0004 17.9999Z"/>
<path fill-rule="evenodd" clip-rule="evenodd" d="M10.2287 1.22702C10.9774 -0.202298 13.0234 -0.202301 13.7721 1.22701L23.1194 19.0719C23.8169 20.4035 22.851 21.9999 21.3477 21.9999H2.6531C1.14981 21.9999 0.1839 20.4035 0.881439 19.0719L10.2287 1.22702ZM21.3477 19.9999L12.0004 2.15503L2.6531 19.9999H21.3477Z"/>
</svg>
