<svg width="24" height="24" viewBox="0 0 24 24" xmlns="http://www.w3.org/2000/svg">
<path fill-rule="evenodd" clip-rule="evenodd" d="M7.5 11C9.433 11 11 9.433 11 7.5C11 5.567 9.433 4 7.5 4C5.567 4 4 5.567 4 7.5C4 9.433 5.567 11 7.5 11ZM7.5 9C8.32843 9 9 8.32843 9 7.5C9 6.67157 8.32843 6 7.5 6C6.67157 6 6 6.67157 6 7.5C6 8.32843 6.67157 9 7.5 9Z"/>
<path fill-rule="evenodd" clip-rule="evenodd" d="M4 0C1.79086 0 0 1.79086 0 4V20C0 22.2091 1.79086 24 4 24H20C22.2091 24 24 22.2091 24 20V4C24 1.79086 22.2091 0 20 0H4ZM20 2H4C2.89543 2 2 2.89543 2 4V20C2 21.1046 2.89543 22 4 22H4.58579L15.5858 11C16.3668 10.219 17.6332 10.219 18.4142 11L22 14.5858V4C22 2.89543 21.1046 2 20 2ZM22 17.4142L17 12.4142L7.41421 22H20C21.1046 22 22 21.1046 22 20V17.4142Z"/>
</svg>
