<svg width="24" height="24" viewBox="0 0 24 24" xmlns="http://www.w3.org/2000/svg">
<path d="M12 15C13.6568 15 15 13.6569 15 12C15 10.3431 13.6568 9 12 9C10.3431 9 8.99998 10.3431 8.99998 12C8.99998 13.6569 10.3431 15 12 15Z"/>
<path fill-rule="evenodd" clip-rule="evenodd" d="M12 4C9.08776 4 6.65733 5.30774 4.8373 6.86522C3.0215 8.41909 1.74232 10.2792 1.10555 11.5528L0.866211 12.0315L1.13174 12.4961C1.84945 13.7521 3.2221 15.5971 5.05618 17.1402C6.8848 18.6787 9.27317 20 12 20C14.7268 20 17.1152 18.6787 18.9438 17.1402C20.7779 15.5971 22.1505 13.7521 22.8682 12.4961L23.1337 12.0315L22.8944 11.5528C22.2576 10.2792 20.9785 8.41909 19.1627 6.86522C17.3426 5.30774 14.9122 4 12 4ZM6.34378 15.6098C4.93207 14.4221 3.82336 13.0239 3.15117 11.9707C3.74713 10.934 4.76792 9.55693 6.13766 8.38478C7.72597 7.02559 9.7122 6 12 6C14.2878 6 16.274 7.02559 17.8623 8.38478C19.232 9.55693 20.2528 10.934 20.8488 11.9707C20.1766 13.0239 19.0679 14.4221 17.6562 15.6098C16.0181 16.988 14.0732 18 12 18C9.92679 18 7.98183 16.988 6.34378 15.6098Z"/>
</svg>
