<svg width="183" height="182" viewBox="0 0 183 182" fill="none" xmlns="http://www.w3.org/2000/svg">
<path fill-rule="evenodd" clip-rule="evenodd" d="M94.6656 76.0459C96.4082 77.7504 99.0996 78.7661 102.598 78.9535C110.647 79.3846 116 81.6787 116 87.0536C116 93.7056 108.055 101 97.9837 101C92.4185 101 87.0812 98.8929 83.146 95.1421C79.2108 91.3914 77 86.3043 77 81C77 75.6957 79.2108 70.6086 83.146 66.8579C87.0812 63.1071 92.4185 61 97.9837 61C98.3917 61 98.7966 61.0148 99.2038 61.0373C99.3014 61.043 99.3952 61.0514 99.4906 61.0585C99.8325 61.0824 100.171 61.1146 100.507 61.155H100.516C105.196 61.7184 109.224 63.852 109.224 67.4808C109.225 72.0078 99.345 71.19 94.6663 76.048L94.6656 76.0459ZM100.786 62.5496C99.0288 62.5427 97.313 63.0583 95.8775 64.0244C94.4421 64.9906 93.3584 66.3593 92.7774 67.9401C92.5263 68.7105 92.399 69.5127 92.3998 70.3194C92.3895 72.1425 92.971 73.924 94.0648 75.4197C96.669 73.0143 99.7847 71.9683 102.834 71.1231C106.233 70.1764 108.387 69.2044 108.387 67.4386C108.385 64.8782 105.703 62.5496 100.786 62.5496Z" fill="black"/>
<path fill-rule="evenodd" clip-rule="evenodd" d="M59.6569 30.4383C57.4694 41.7034 57.0631 55.4364 58.642 70.2785C53.2982 75.8504 48.608 81.466 44.6816 86.9492C44.5985 86.8932 44.5157 86.8373 44.4331 86.7813C38.3679 82.6672 33.93 78.508 31.2533 74.6152C29.3732 71.8811 28.4747 69.4592 28.3175 67.3433L37.4484 58.5919L32.8023 39.6535L14.0781 34.208L0 47.7009L4.64614 66.6393L20.9314 71.3755C21.6556 74.0577 22.9573 76.6698 24.6613 79.1479C28.0969 84.1444 33.395 88.9608 39.9423 93.4019C40.044 93.4709 40.1461 93.5398 40.2485 93.6087C39.7059 94.4924 39.1853 95.3706 38.6874 96.2423C34.7835 103.077 32.1614 109.707 31.2847 115.689C30.4071 121.677 31.2365 127.434 34.8167 131.87C38.3969 136.305 43.849 138.331 49.8875 138.736C55.9199 139.142 62.9538 137.978 70.4586 135.604C81.3756 132.151 93.7253 125.998 106.198 117.619C113.629 118.833 120.83 119.576 127.639 119.865C127.333 123.259 126.885 126.47 126.303 129.467C124.907 136.659 122.777 142.414 120.149 146.48C119.941 146.802 119.732 147.111 119.52 147.408L105.078 143.208L91 156.701L95.6461 175.639L114.37 181.085L128.448 167.592L124.978 153.447C125.644 152.619 126.274 151.742 126.868 150.823C130.233 145.617 132.641 138.795 134.157 130.992C134.826 127.545 135.329 123.866 135.659 119.996C141.124 119.934 146.261 119.554 150.973 118.865C158.801 117.721 165.669 115.694 170.938 112.694C176.211 109.692 180.248 105.485 181.524 99.9197C182.801 94.3541 181.001 88.8087 177.563 83.8087C174.127 78.8123 168.829 73.9958 162.282 69.5547C153.029 63.2786 140.922 57.5096 127.05 52.9256C125.095 46.9013 122.891 41.226 120.497 35.9932C123.503 34.7203 126.414 33.6389 129.203 32.7567C135.767 30.6806 141.471 29.7659 146.039 29.9377L149.646 44.6393L168.37 50.0848L182.448 36.5919L177.802 17.6535L159.078 12.208L148.737 22.1188C148.283 22.0684 147.824 22.0278 147.362 21.9968C141.329 21.5914 134.295 22.7554 126.79 25.1292C123.618 26.1325 120.325 27.3638 116.943 28.8114C115.23 25.6119 113.445 22.6298 111.603 19.893C107.165 13.2991 102.287 7.95624 97.1583 4.47464C92.0148 0.982682 86.3337 -0.810865 80.5929 0.354543C74.8522 1.51995 70.3202 5.38684 66.9455 10.608C63.5809 15.8138 61.1721 22.6359 59.6569 30.4383ZM92.6647 11.0934C88.6746 8.38449 85.1721 7.58812 82.1845 8.19462C79.1969 8.80113 76.2822 10.9002 73.6643 14.9506C71.0364 19.0165 68.9068 24.7715 67.5102 31.9633C65.8068 40.7353 65.2521 51.3424 66.0365 62.9915C69.4773 59.7817 73.1243 56.6131 76.9556 53.5206C87.873 44.7086 99.0793 37.4896 109.676 32.1883C108.152 29.3705 106.577 26.7536 104.966 24.3596C100.875 18.2817 96.6701 13.8127 92.6647 11.0934ZM149.816 110.949C145.623 111.562 141.018 111.914 136.087 111.989C136.364 100.218 135.192 87.0845 132.435 73.5029C131.663 69.7026 130.791 65.983 129.829 62.3614C140.863 66.3973 150.401 71.1629 157.791 76.1753C163.856 80.2895 168.294 84.4487 170.971 88.3414C173.645 92.2305 174.333 95.4878 173.727 98.1314C173.121 100.775 171.082 103.407 166.98 105.742C162.874 108.079 157.068 109.889 149.816 110.949ZM107.035 55.6488C111.733 56.7262 116.283 57.9461 120.651 59.284C122.153 64.3185 123.481 69.6065 124.595 75.0945C125.658 80.3326 126.471 85.4789 127.048 90.477C123.182 94.2318 119.793 97.3358 115.269 100.987C111.639 103.917 107.989 106.653 104.356 109.186C101.339 108.642 98.2789 108.017 95.1883 107.308C87.326 105.505 79.8785 103.302 73.0016 100.816C72.9885 100.767 72.9743 100.719 72.9592 100.67C71.1988 95.0098 70.4644 92.4722 69.2187 86.3362C68.3102 81.8606 67.5842 77.4522 67.0326 73.1459C71.5646 68.6196 76.5665 64.1155 81.9803 59.7458C85.1579 57.1809 88.3509 54.7645 91.5345 52.5032C95.9919 53.2485 102.775 54.6718 107.035 55.6488ZM113.236 39.3523C114.777 42.721 116.241 46.3022 117.61 50.0685C114.738 49.276 111.806 48.5352 108.824 47.8513C106.195 47.2483 103.584 46.7027 100.997 46.2135C105.155 43.6377 109.254 41.3454 113.236 39.3523ZM128.087 111.877C128.174 108.285 128.118 104.54 127.912 100.671C125.571 102.812 123.145 104.911 120.293 107.213C118.743 108.464 117.186 109.684 115.626 110.87C119.919 111.377 124.085 111.71 128.087 111.877ZM51.5203 91.1422C55.1836 93.1972 59.2018 95.1815 63.5244 97.0579C62.7744 94.3736 62.1665 91.8086 61.3787 87.9278C60.8774 85.4586 60.4285 83.0042 60.0312 80.5701C56.8721 84.1367 54.0256 87.6792 51.5203 91.1422ZM41.0419 126.845C39.3321 124.727 38.5188 121.498 39.2001 116.849C39.8823 112.194 42.021 106.536 45.6341 100.21C46.087 99.4171 46.5615 98.6166 47.057 97.8093C59.4969 104.874 75.5392 111.009 93.4 115.105C93.8623 115.211 94.324 115.316 94.7852 115.418C85.2971 121.163 76.1554 125.412 68.046 127.977C61.1004 130.173 55.1178 131.07 50.4238 130.754C45.7359 130.439 42.7516 128.963 41.0419 126.845Z" fill="black"/>
<path d="M19.1959 53.7618L17.4964 59.2597L15.0569 59.8917L17.4609 52.5192L12.2456 47.604L14.7548 46.954L18.4131 50.5247L19.9474 45.6088L22.352 44.9859L20.1611 51.7453L25.8603 57.093L23.3163 57.752L19.1959 53.7618Z" fill="white"/>
<path d="M161.819 28.4142L171.857 27.6036L170.965 29.8836L163.589 30.3625L168.842 35.3152L167.99 37.4946L158.221 27.8775L159.073 25.6981L161.819 28.4142Z" fill="white"/>
<path d="M106.371 162.401L108.169 161.895L117.33 159.836L119.212 162.016L109.675 170.25L108.263 168.614L115.88 162.039L113.99 162.577L104.829 164.636L102.97 162.483L112.508 154.249L113.919 155.885L106.371 162.401ZM105.491 167.084C106.095 167.783 106.382 168.455 106.352 169.1C106.321 169.744 106.011 170.321 105.421 170.831L104.338 169.577C104.656 169.303 104.826 169.022 104.847 168.734C104.868 168.446 104.765 168.171 104.538 167.907C104.302 167.635 104.041 167.488 103.753 167.467C103.458 167.437 103.151 167.559 102.833 167.833L101.774 166.607C102.365 166.097 102.981 165.874 103.623 165.939C104.265 166.003 104.887 166.384 105.491 167.084Z" fill="white"/>
</svg>
