<svg width="24" height="24" viewBox="0 0 24 24" fill="none" xmlns="http://www.w3.org/2000/svg">
<g clip-path="url(#clip0)">
<path fill-rule="evenodd" clip-rule="evenodd" d="M16 12C16.5523 12 17 12.4477 17 13V21C17 21.5523 16.5523 22 16 22C15.4477 22 15 21.5523 15 21V13C15 12.4477 15.4477 12 16 12Z" fill="#121314"/>
<path fill-rule="evenodd" clip-rule="evenodd" d="M8 12C8.55228 12 9 12.4477 9 13V21C9 21.5523 8.55228 22 8 22C7.44772 22 7 21.5523 7 21V13C7 12.4477 7.44772 12 8 12Z" fill="#121314"/>
<path fill-rule="evenodd" clip-rule="evenodd" d="M12 14C12.5523 14 13 14.4477 13 15V23C13 23.5523 12.5523 24 12 24C11.4477 24 11 23.5523 11 23V15C11 14.4477 11.4477 14 12 14Z" fill="#121314"/>
<path fill-rule="evenodd" clip-rule="evenodd" d="M8.08241 0.0465762C9.50129 -0.0979041 10.9342 0.0968897 12.263 0.614901C13.5918 1.13291 14.7785 1.95931 15.7252 3.02598C16.498 3.89665 17.0929 4.90706 17.4793 5.99999H18.0012C19.3784 6.00161 20.7131 6.47694 21.7813 7.34619C22.8494 8.21544 23.5861 9.4257 23.8675 10.7738C24.149 12.1219 23.9581 13.5258 23.3269 14.7498C22.6957 15.9739 21.6627 16.9435 20.4012 17.496C19.8953 17.7176 19.3056 17.4871 19.084 16.9812C18.8625 16.4753 19.093 15.8856 19.5989 15.664C20.4399 15.2957 21.1285 14.6492 21.5493 13.8332C21.9701 13.0172 22.0974 12.0813 21.9097 11.1825C21.7221 10.2838 21.231 9.47696 20.5189 8.89746C19.8069 8.31804 18.9172 8.00116 17.9992 7.99999C17.9991 7.99999 17.9994 7.99999 17.9992 7.99999H16.74C16.284 7.99999 15.8858 7.69152 15.7718 7.25002C15.4944 6.17598 14.9658 5.18323 14.2294 4.3536C13.4931 3.52397 12.5701 2.88122 11.5366 2.47832C10.5031 2.07542 9.38859 1.92391 8.28502 2.03629C7.18145 2.14866 6.12038 2.5217 5.18928 3.12465C4.25818 3.7276 3.4837 4.5432 2.92969 5.50422C2.37567 6.46524 2.05799 7.54418 2.00281 8.65208C1.94763 9.75999 2.15654 10.8651 2.61233 11.8765C3.06811 12.8878 3.75771 13.7763 4.6243 14.4688C5.05575 14.8135 5.12602 15.4428 4.78125 15.8743C4.43648 16.3057 3.80722 16.376 3.37577 16.0312C2.26159 15.1409 1.37496 13.9985 0.78895 12.6982C0.202942 11.398 -0.0656602 9.97705 0.00528293 8.5526C0.0762262 7.12815 0.484683 5.74095 1.19699 4.50535C1.90929 3.26975 2.90505 2.22112 4.10218 1.4459C5.29931 0.670674 6.66353 0.191057 8.08241 0.0465762Z" fill="#121314"/>
</g>
<defs>
<clipPath id="clip0">
</clipPath>
</defs>
</svg>
