<svg width="24" height="24" viewBox="0 0 24 24" fill="none" xmlns="http://www.w3.org/2000/svg">
<g clip-path="url(#clip0)">
<path fill-rule="evenodd" clip-rule="evenodd" d="M3.1625 5.76016C2.17007 7.62623 2.07136 9.85922 2.46166 11.2253C3.32727 14.2549 5.90245 16 9.00015 16H18.0001C18.5803 16 19.6198 15.7944 20.486 15.183C21.3001 14.6084 22.0001 13.6547 22.0001 12C22.0001 10.1214 21.2852 9.21571 20.4298 8.71147C19.4811 8.15219 18.2062 8 17.0001 8C16.5912 8 16.2235 7.75105 16.0717 7.37139C15.6097 6.2164 14.8993 5.00179 13.7965 4.07966C12.7118 3.17276 11.1909 2.5 9.00014 2.5C5.89291 2.5 4.11516 3.96888 3.1625 5.76016ZM1.3967 4.82105C2.6744 2.41859 5.10738 0.5 9.00014 0.5C11.6435 0.5 13.6226 1.32724 15.0794 2.54534C16.3028 3.56831 17.1169 4.8318 17.664 6.01414C18.8485 6.06659 20.2517 6.28483 21.4454 6.98853C22.965 7.88429 24.0001 9.47859 24.0001 12C24.0001 14.3453 22.9502 15.8916 21.6393 16.817C20.3804 17.7056 18.92 18 18.0001 18H9.00015C5.09782 18 1.67298 15.7451 0.538608 11.7747C0.00746909 9.91572 0.158766 7.14872 1.3967 4.82105Z" fill="#121314"/>
</g>
<defs>
<clipPath id="clip0">
</clipPath>
</defs>
</svg>
