<svg xmlns="http://www.w3.org/2000/svg" width="22" height="22" viewBox="0 0 22 22"><path fill-rule="evenodd" clip-rule="evenodd" d="M11 2a9 9 0 100 18 9 9 0 000-18zM0 11C0 4.925 4.925 0 11 0s11 4.925 11 11-4.925 11-11 11S0 17.075 0 11z"/><path fill-rule="evenodd" clip-rule="evenodd" d="M14.707 7.293a1 1 0 010 1.414l-6 6a1 1 0 01-1.414-1.414l6-6a1 1 0 011.414 0z"/><path fill-rule="evenodd" clip-rule="evenodd" d="M7.293 7.293a1 1 0 011.414 0l6 6a1 1 0 01-1.414 1.414l-6-6a1 1 0 010-1.414z"/></svg>
