<svg width="24" height="24" viewBox="0 0 24 24" fill="none" xmlns="http://www.w3.org/2000/svg">
<g clip-path="url(#clip0)">
<path fill-rule="evenodd" clip-rule="evenodd" d="M1 3C1.55228 3 2 3.44772 2 4V9H7C7.55228 9 8 9.44772 8 10C8 10.5523 7.55228 11 7 11H1C0.447715 11 0 10.5523 0 10V4C0 3.44772 0.447715 3 1 3Z" fill="#121314"/>
<path fill-rule="evenodd" clip-rule="evenodd" d="M10.6054 2.10688C12.7523 1.80482 14.9392 2.20868 16.8366 3.2576C18.7341 4.30652 20.2392 5.94369 21.1253 7.92242C22.0114 9.90115 22.2304 12.1142 21.7493 14.2283C21.2682 16.3423 20.1131 18.2427 18.4581 19.6431C16.803 21.0436 14.7377 21.8683 12.5732 21.9928C10.4087 22.1174 8.26236 21.5352 6.45756 20.3338C4.65276 19.1325 3.28727 17.3772 2.56683 15.3323C2.38331 14.8114 2.65681 14.2404 3.17771 14.0568C3.69861 13.8733 4.26966 14.1468 4.45318 14.6677C5.02953 16.3036 6.12192 17.7079 7.56576 18.6689C9.0096 19.63 10.7267 20.0958 12.4583 19.9961C14.1898 19.8965 15.8421 19.2368 17.1662 18.1164C18.4902 16.996 19.4143 15.4757 19.7992 13.7845C20.184 12.0933 20.0088 10.3228 19.3 8.7398C18.5911 7.15682 17.387 5.84709 15.869 5.00795C14.3511 4.16881 12.6015 3.84573 10.884 4.08737C9.16647 4.32902 7.57399 5.12231 6.34651 6.34772C6.33937 6.35484 6.33213 6.36186 6.32478 6.36876L1.68478 10.7288C1.2823 11.107 0.649442 11.0873 0.27125 10.6848C-0.106942 10.2823 -0.0872528 9.64945 0.315226 9.27126L4.94449 4.92135C6.47735 3.39582 8.46357 2.40822 10.6054 2.10688Z" fill="#121314"/>
</g>
<defs>
<clipPath id="clip0">
</clipPath>
</defs>
</svg>
