<svg width="24" height="24" viewBox="0 0 24 24" fill="none" xmlns="http://www.w3.org/2000/svg">
<g clip-path="url(#clip0)">
<path fill-rule="evenodd" clip-rule="evenodd" d="M23 3C23.5523 3 24 3.44772 24 4V10C24 10.5523 23.5523 11 23 11H17C16.4477 11 16 10.5523 16 10C16 9.44772 16.4477 9 17 9H22V4C22 3.44772 22.4477 3 23 3Z" fill="#121314"/>
<path fill-rule="evenodd" clip-rule="evenodd" d="M13.1274 4.08125C11.41 3.83765 9.66003 4.15882 8.14109 4.99636C6.62214 5.83389 5.41655 7.14241 4.70598 8.72474C3.99542 10.3071 3.81838 12.0775 4.20154 13.7692C4.5847 15.4609 5.50731 16.9822 6.83033 18.1039C8.15335 19.2257 9.80511 19.887 11.5367 19.9883C13.2683 20.0896 14.9859 19.6254 16.4307 18.6656C17.8755 17.7058 18.9692 16.3024 19.547 14.6669C19.731 14.1462 20.3023 13.8732 20.823 14.0571C21.3437 14.2411 21.6167 14.8124 21.4328 15.3331C20.7105 17.3775 19.3434 19.1317 17.5374 20.3315C15.7314 21.5312 13.5844 22.1115 11.4199 21.9849C9.25541 21.8583 7.19072 21.0316 5.53694 19.6294C3.88316 18.2273 2.7299 16.3256 2.25095 14.211C1.772 12.0963 1.9933 9.88334 2.8815 7.90543C3.76971 5.92752 5.2767 4.29187 7.17538 3.24495C9.07407 2.19804 11.2616 1.79658 13.4083 2.10107C15.5498 2.40483 17.5351 3.39476 19.0662 4.92215L23.6854 9.272C24.0875 9.65063 24.1065 10.2835 23.7279 10.6856C23.3493 11.0876 22.7164 11.1067 22.3143 10.728L17.6843 6.36803C17.677 6.3611 17.6697 6.35405 17.6626 6.3469C16.4364 5.12 14.8448 4.32484 13.1274 4.08125Z" fill="#121314"/>
</g>
<defs>
<clipPath id="clip0">
</clipPath>
</defs>
</svg>
