<svg width="24" height="24" viewBox="0 0 24 24" fill="none" xmlns="http://www.w3.org/2000/svg">
<path fill-rule="evenodd" clip-rule="evenodd" d="M7.75736 13.7574C8.88258 12.6321 10.4087 12 12 12C13.5913 12 15.1174 12.6321 16.2426 13.7574C17.3679 14.8826 18 16.4087 18 18C18 18.5523 17.5523 19 17 19C16.4477 19 16 18.5523 16 18C16 16.9391 15.5786 15.9217 14.8284 15.1716C14.0783 14.4214 13.0609 14 12 14C10.9391 14 9.92172 14.4214 9.17157 15.1716C8.42143 15.9217 8 16.9391 8 18C8 18.5523 7.55228 19 7 19C6.44772 19 6 18.5523 6 18C6 16.4087 6.63214 14.8826 7.75736 13.7574Z" fill="#121314"/>
<path fill-rule="evenodd" clip-rule="evenodd" d="M12 1C12.5523 1 13 1.44772 13 2V9C13 9.55228 12.5523 10 12 10C11.4477 10 11 9.55228 11 9V2C11 1.44772 11.4477 1 12 1Z" fill="#121314"/>
<path fill-rule="evenodd" clip-rule="evenodd" d="M3.51289 9.51289C3.90342 9.12237 4.53658 9.12237 4.92711 9.51289L6.34711 10.9329C6.73763 11.3234 6.73763 11.9566 6.34711 12.3471C5.95658 12.7376 5.32342 12.7376 4.93289 12.3471L3.51289 10.9271C3.12237 10.5366 3.12237 9.90342 3.51289 9.51289Z" fill="#121314"/>
<path fill-rule="evenodd" clip-rule="evenodd" d="M0 18C0 17.4477 0.447715 17 1 17H3C3.55228 17 4 17.4477 4 18C4 18.5523 3.55228 19 3 19H1C0.447715 19 0 18.5523 0 18Z" fill="#121314"/>
<path fill-rule="evenodd" clip-rule="evenodd" d="M20 18C20 17.4477 20.4477 17 21 17H23C23.5523 17 24 17.4477 24 18C24 18.5523 23.5523 19 23 19H21C20.4477 19 20 18.5523 20 18Z" fill="#121314"/>
<path fill-rule="evenodd" clip-rule="evenodd" d="M20.4871 9.51289C20.8776 9.90342 20.8776 10.5366 20.4871 10.9271L19.0671 12.3471C18.6766 12.7376 18.0434 12.7376 17.6529 12.3471C17.2624 11.9566 17.2624 11.3234 17.6529 10.9329L19.0729 9.51289C19.4634 9.12237 20.0966 9.12237 20.4871 9.51289Z" fill="#121314"/>
<path fill-rule="evenodd" clip-rule="evenodd" d="M0 22C0 21.4477 0.447715 21 1 21H23C23.5523 21 24 21.4477 24 22C24 22.5523 23.5523 23 23 23H1C0.447715 23 0 22.5523 0 22Z" fill="#121314"/>
<path fill-rule="evenodd" clip-rule="evenodd" d="M11.2929 1.29289C11.6834 0.902369 12.3166 0.902369 12.7071 1.29289L16.7071 5.29289C17.0976 5.68342 17.0976 6.31658 16.7071 6.70711C16.3166 7.09763 15.6834 7.09763 15.2929 6.70711L12 3.41421L8.70711 6.70711C8.31658 7.09763 7.68342 7.09763 7.29289 6.70711C6.90237 6.31658 6.90237 5.68342 7.29289 5.29289L11.2929 1.29289Z" fill="#121314"/>
</svg>
