<svg width="24" height="24" viewBox="0 0 24 24" fill="none" xmlns="http://www.w3.org/2000/svg">
<g clip-path="url(#clip0)">
<path fill-rule="evenodd" clip-rule="evenodd" d="M0.292893 5.29289C0.683417 4.90237 1.31658 4.90237 1.70711 5.29289L8.5 12.0858L12.7929 7.79289C13.1834 7.40237 13.8166 7.40237 14.2071 7.79289L23.7071 17.2929C24.0976 17.6834 24.0976 18.3166 23.7071 18.7071C23.3166 19.0976 22.6834 19.0976 22.2929 18.7071L13.5 9.91421L9.20711 14.2071C8.81658 14.5976 8.18342 14.5976 7.79289 14.2071L0.292893 6.70711C-0.0976311 6.31658 -0.0976311 5.68342 0.292893 5.29289Z" fill="#121314"/>
<path fill-rule="evenodd" clip-rule="evenodd" d="M23 11C23.5523 11 24 11.4477 24 12V18C24 18.5523 23.5523 19 23 19H17C16.4477 19 16 18.5523 16 18C16 17.4477 16.4477 17 17 17H22V12C22 11.4477 22.4477 11 23 11Z" fill="#121314"/>
</g>
<defs>
<clipPath id="clip0">
</clipPath>
</defs>
</svg>
