<svg width="24" height="24" viewBox="0 0 24 24" fill="none" xmlns="http://www.w3.org/2000/svg">
<g clip-path="url(#clip0)">
<path d="M8.30019 21.9C5.70019 21.9 3.00019 21.1999 0.60019 19.7999C0.20019 19.5999 0.000190429 19.1 0.10019 18.7C0.20019 18.3 0.60019 18 1.00019 18C2.70019 18.1 4.40019 17.7 5.90019 17C2.20019 14.7 1.20019 11.5 1.10019 8.99995C1.00019 6.09995 2.00019 3.69995 2.10019 3.59995C2.20019 3.29995 2.50019 2.99995 2.90019 2.99995C3.30019 2.99995 3.60019 3.09995 3.80019 3.39995C5.50019 5.79995 8.10019 7.29995 11.0002 7.49995C11.0002 5.89995 11.7002 4.39995 12.9002 3.29995C15.0002 1.49995 18.1002 1.49995 20.2002 3.29995C21.0002 2.99995 21.8002 2.59995 22.5002 2.09995C22.8002 1.89995 23.3002 1.89995 23.6002 2.09995C23.9002 2.29995 24.1002 2.79995 24.0002 3.19995C23.7002 4.59995 23.0002 5.89995 22.0002 6.99995C22.0002 7.19995 22.0002 7.29995 22.0002 7.49995C22.0002 13 19.6002 17.6 15.3002 20C13.2002 21.2999 10.8002 21.9 8.30019 21.9ZM5.00019 19.5C8.30019 20.2999 11.6002 19.9 14.4002 18.2999C18.0002 16.1999 20.1002 12.2 20.1002 7.49995C20.1002 7.29995 20.1002 7.09995 20.0002 6.89995C19.9002 6.59995 20.0002 6.19995 20.3002 5.99995C20.5002 5.79995 20.7002 5.49995 20.9002 5.29995C20.7002 5.39995 20.4002 5.49995 20.2002 5.49995C19.8002 5.59995 19.4002 5.49995 19.2002 5.19995C17.9002 3.79995 15.7002 3.59995 14.3002 4.89995C13.4002 5.49995 13.0002 6.49995 13.0002 7.49995V8.49995C13.0002 8.99995 12.6002 9.49995 12.0002 9.49995C8.70019 9.59995 5.60019 8.29995 3.40019 5.99995C2.80019 8.59995 2.60019 13.5 8.40019 16C8.70019 16.2 9.00019 16.5 9.00019 16.9C9.00019 17.3 8.90019 17.6 8.60019 17.8C7.40019 18.6 6.20019 19.2 5.00019 19.5Z" fill="#121314"/>
</g>
<defs>
<clipPath id="clip0">
</clipPath>
</defs>
</svg>
