<svg width="24" height="24" viewBox="0 0 24 24" fill="none" xmlns="http://www.w3.org/2000/svg">
<g clip-path="url(#clip0)">
<path fill-rule="evenodd" clip-rule="evenodd" d="M11.2929 11.2929C11.6834 10.9024 12.3165 10.9024 12.7071 11.2929L16.7071 15.2929C17.0976 15.6834 17.0976 16.3166 16.7071 16.7071C16.3165 17.0976 15.6834 17.0976 15.2929 16.7071L12 13.4142L8.70707 16.7071C8.31654 17.0976 7.68338 17.0976 7.29285 16.7071C6.90233 16.3166 6.90233 15.6834 7.29285 15.2929L11.2929 11.2929Z" fill="#121314"/>
<path fill-rule="evenodd" clip-rule="evenodd" d="M12 11C12.5522 11 13 11.4477 13 12V21C13 21.5523 12.5522 22 12 22C11.4477 22 11 21.5523 11 21V12C11 11.4477 11.4477 11 12 11Z" fill="#121314"/>
<path fill-rule="evenodd" clip-rule="evenodd" d="M8.66326 2.00854C10.0227 1.95846 11.3759 2.21721 12.621 2.76536C13.8661 3.31351 14.9707 4.13678 15.8518 5.17329C16.5633 6.01022 17.1141 6.96858 17.479 7.99998H18C19.333 8.00086 20.6284 8.44564 21.6806 9.26412C22.7328 10.0826 23.4825 11.2282 23.8113 12.52C24.1401 13.8119 24.0293 15.1764 23.4965 16.3983C22.9636 17.6202 22.039 18.6299 20.8686 19.268C20.3837 19.5323 19.7763 19.3535 19.512 18.8686C19.2476 18.3837 19.4264 17.7763 19.9113 17.512C20.6916 17.0866 21.308 16.4135 21.6632 15.5989C22.0184 14.7843 22.0923 13.8746 21.8731 13.0133C21.6539 12.1521 21.1541 11.3884 20.4526 10.8427C19.7512 10.2971 18.888 10.0006 17.9993 9.99998H16.74C16.2841 9.99998 15.8859 9.69166 15.7718 9.25029C15.5069 8.22588 15.0133 7.27483 14.328 6.46866C13.6427 5.66249 12.7835 5.02216 11.8151 4.59582C10.8467 4.16949 9.79428 3.96823 8.7369 4.00719C7.67952 4.04615 6.64473 4.3243 5.71032 4.82075C4.77592 5.31719 3.96622 6.01901 3.34209 6.87343C2.71796 7.72784 2.29565 8.71264 2.1069 9.75376C1.91815 10.7949 1.96789 11.8653 2.25236 12.8844C2.53683 13.9035 3.04863 14.8449 3.74929 15.6378C4.11501 16.0516 4.076 16.6836 3.66215 17.0493C3.24831 17.415 2.61635 17.376 2.25063 16.9622C1.34977 15.9428 0.691738 14.7324 0.325992 13.4221C-0.039755 12.1118 -0.103695 10.7356 0.138979 9.397C0.381653 8.05841 0.924626 6.79224 1.72708 5.69371C2.52953 4.59517 3.57057 3.69284 4.77195 3.05455C5.97333 2.41626 7.30377 2.05863 8.66326 2.00854Z" fill="#121314"/>
<path fill-rule="evenodd" clip-rule="evenodd" d="M11.2929 11.2929C11.6834 10.9024 12.3165 10.9024 12.7071 11.2929L16.7071 15.2929C17.0976 15.6834 17.0976 16.3166 16.7071 16.7071C16.3165 17.0976 15.6834 17.0976 15.2929 16.7071L12 13.4142L8.70707 16.7071C8.31654 17.0976 7.68338 17.0976 7.29285 16.7071C6.90233 16.3166 6.90233 15.6834 7.29285 15.2929L11.2929 11.2929Z" fill="#121314"/>
</g>
<defs>
<clipPath id="clip0">
</clipPath>
</defs>
</svg>
