<svg width="24" height="24" viewBox="0 0 24 24" fill="none" xmlns="http://www.w3.org/2000/svg">
<path fill-rule="evenodd" clip-rule="evenodd" d="M11.4332 4.09871C11.7797 4.26523 12 4.6156 12 5.00001V19C12 19.3844 11.7797 19.7348 11.4332 19.9013C11.0867 20.0678 10.6755 20.021 10.3753 19.7809L5.64922 16H2C1.44772 16 1 15.5523 1 15V9.00001C1 8.44772 1.44772 8.00001 2 8.00001H5.64922L10.3753 4.21914C10.6755 3.979 11.0867 3.93219 11.4332 4.09871ZM10 7.08063L6.62469 9.78088C6.44738 9.92273 6.22707 10 6 10H3V14H6C6.22707 14 6.44738 14.0773 6.62469 14.2191L10 16.9194V7.08063Z" fill="#121314"/>
<path fill-rule="evenodd" clip-rule="evenodd" d="M18.363 4.22284C18.7536 3.83237 19.3868 3.83247 19.7773 4.22305C21.8394 6.28586 22.9979 9.08325 22.9979 12.0001C22.9979 14.9169 21.8394 17.7142 19.7773 19.7771C19.3868 20.1676 18.7536 20.1677 18.363 19.7773C17.9725 19.3868 17.9724 18.7536 18.3628 18.3631C20.0501 16.6753 20.9979 14.3865 20.9979 12.0001C20.9979 9.61358 20.0501 7.3248 18.3628 5.63705C17.9724 5.24647 17.9725 4.61331 18.363 4.22284ZM14.833 7.75284C15.2236 7.36238 15.8568 7.36247 16.2473 7.75305C17.3721 8.87822 18.004 10.4041 18.004 11.9951C18.004 13.586 17.3721 15.1119 16.2473 16.2371C15.8568 16.6276 15.2236 16.6277 14.833 16.2373C14.4425 15.8468 14.4424 15.2136 14.8328 14.8231C15.5827 14.0729 16.004 13.0557 16.004 11.9951C16.004 10.9344 15.5827 9.91716 14.8328 9.16705C14.4424 8.77647 14.4425 8.14331 14.833 7.75284Z" fill="#121314"/>
</svg>
