<svg width="24" height="24" viewBox="0 0 24 24" fill="none" xmlns="http://www.w3.org/2000/svg">
<path fill-rule="evenodd" clip-rule="evenodd" d="M11.4332 4.09871C11.7797 4.26523 12 4.6156 12 5.00001V19C12 19.3844 11.7797 19.7348 11.4332 19.9013C11.0867 20.0678 10.6755 20.021 10.3753 19.7809L5.64922 16H2C1.44772 16 1 15.5523 1 15V9.00001C1 8.44772 1.44772 8.00001 2 8.00001H5.64922L10.3753 4.21914C10.6755 3.979 11.0867 3.93219 11.4332 4.09871ZM10 7.08063L6.62469 9.78088C6.44738 9.92273 6.22707 10 6 10H3V14H6C6.22707 14 6.44738 14.0773 6.62469 14.2191L10 16.9194V7.08063Z" fill="#121314"/>
<path fill-rule="evenodd" clip-rule="evenodd" d="M14.833 7.75275C15.2236 7.36228 15.8568 7.36238 16.2473 7.75296C17.3721 8.87813 18.004 10.404 18.004 11.995C18.004 13.5859 17.3721 15.1118 16.2473 16.237C15.8568 16.6275 15.2236 16.6276 14.833 16.2372C14.4425 15.8467 14.4424 15.2135 14.8328 14.823C15.5827 14.0728 16.004 13.0556 16.004 11.995C16.004 10.9343 15.5827 9.91707 14.8328 9.16696C14.4424 8.77638 14.4425 8.14321 14.833 7.75275Z" fill="#121314"/>
</svg>
