<svg width="24" height="24" viewBox="0 0 24 24" fill="none" xmlns="http://www.w3.org/2000/svg">
<path fill-rule="evenodd" clip-rule="evenodd" d="M11.2023 5.01899C11.0407 4.98703 10.8737 4.99551 10.7161 5.04366C10.5586 5.09181 10.4154 5.17815 10.2992 5.29499C9.90983 5.68667 9.27667 5.68855 8.88499 5.29918C8.49331 4.90982 8.49144 4.27665 8.8808 3.88497C9.22926 3.53444 9.65893 3.27544 10.1316 3.13099C10.6043 2.98653 11.1053 2.9611 11.5902 3.05696C12.0751 3.15282 12.5288 3.36699 12.9109 3.68044C13.2931 3.99389 13.5919 4.39691 13.7807 4.85366C13.9696 5.31042 14.0427 5.80676 13.9935 6.29857C13.9443 6.79038 13.7744 7.26241 13.4988 7.67271C13.2232 8.08301 12.8505 8.41887 12.4138 8.65042C11.9779 8.8816 11.4916 9.00166 10.9982 8.99998C10.9974 8.99998 10.9966 8.99998 10.9958 8.99997L11 7.99998V8.99998H10.9982H2C1.44772 8.99998 1 8.55227 1 7.99998C1 7.4477 1.44772 6.99998 2 6.99998H11.0042C11.169 7.00067 11.3313 6.96066 11.4769 6.88347C11.6224 6.80629 11.7467 6.69434 11.8385 6.55757C11.9304 6.4208 11.987 6.26346 12.0034 6.09952C12.0198 5.93559 11.9955 5.77014 11.9325 5.61789C11.8696 5.46564 11.77 5.3313 11.6426 5.22681C11.5152 5.12233 11.364 5.05094 11.2023 5.01899ZM19.7889 8.02896C19.5472 7.98075 19.2973 7.99285 19.0614 8.06419C18.8254 8.13553 18.6107 8.26392 18.4362 8.43798C18.0452 8.82801 17.412 8.82721 17.022 8.43619C16.632 8.04518 16.6328 7.41201 17.0238 7.02198C17.431 6.61582 17.932 6.31626 18.4825 6.1498C19.033 5.98333 19.6161 5.9551 20.1801 6.06758C20.7441 6.18007 21.2717 6.42981 21.7162 6.79472C22.1608 7.15963 22.5085 7.62846 22.7288 8.15975C22.949 8.69104 23.0349 9.26841 22.9789 9.84081C22.9229 10.4132 22.7267 10.963 22.4077 11.4415C22.0886 11.92 21.6566 12.3126 21.1498 12.5844C20.6429 12.8562 20.0769 12.999 19.5018 13L19.5 13H2C1.44772 13 1 12.5523 1 12C1 11.4477 1.44772 11 2 11H19.4989C19.7452 10.9994 19.9875 10.9383 20.2045 10.8219C20.4217 10.7054 20.6069 10.5371 20.7436 10.3321C20.8803 10.127 20.9644 9.89136 20.9884 9.64605C21.0124 9.40074 20.9756 9.1533 20.8812 8.9256C20.7868 8.6979 20.6378 8.49698 20.4473 8.34059C20.2567 8.1842 20.0306 8.07716 19.7889 8.02896ZM13.998 15C14.4915 14.9983 14.9778 15.1183 15.4138 15.3495C15.8505 15.5811 16.2232 15.917 16.4988 16.3273C16.7744 16.7376 16.9443 17.2096 16.9935 17.7014C17.0427 18.1932 16.9696 18.6895 16.7807 19.1463C16.5919 19.6031 16.2931 20.0061 15.9109 20.3195C15.5288 20.633 15.0751 20.8471 14.5902 20.943C14.1053 21.0389 13.6043 21.0134 13.1316 20.869C12.6589 20.7245 12.2293 20.4655 11.8808 20.115C11.4914 19.7233 11.4933 19.0901 11.885 18.7008C12.2767 18.3114 12.9098 18.3133 13.2992 18.705C13.4154 18.8218 13.5586 18.9082 13.7161 18.9563C13.8737 19.0045 14.0407 19.0129 14.2023 18.981C14.364 18.949 14.5152 18.8776 14.6426 18.7732C14.77 18.6687 14.8696 18.5343 14.9325 18.3821C14.9955 18.2298 15.0198 18.0644 15.0034 17.9004C14.987 17.7365 14.9304 17.5792 14.8385 17.4424C14.7467 17.3056 14.6224 17.1937 14.4769 17.1165C14.3313 17.0393 14.169 16.9993 14.0042 17L14 17H2C1.44772 17 1 16.5523 1 16C1 15.4477 1.44772 15 2 15H13.998Z" fill="#121314"/>
</svg>
