<svg width="24" height="24" viewBox="0 0 24 24" fill="none" xmlns="http://www.w3.org/2000/svg">
<g clip-path="url(#clip0)">
<path fill-rule="evenodd" clip-rule="evenodd" d="M11.9999 3C12 3 12.0001 3 12.0001 4L12.0001 5L11.9246 5.00011C11.8746 5.00022 11.8007 5.00044 11.7058 5.00089C11.516 5.00178 11.2426 5.00356 10.9089 5.00713C10.2411 5.01427 9.33406 5.02855 8.37479 5.05706C7.41391 5.08561 6.40869 5.12821 5.5422 5.19141C4.65409 5.25619 3.99421 5.33761 3.66544 5.42419C3.36674 5.51 3.09566 5.67253 2.87922 5.89566C2.66809 6.11333 2.51618 6.38119 2.43769 6.67375C2.13815 8.34737 1.99167 10.0448 2.00007 11.7451L2.00013 11.7563C1.98941 13.4635 2.13479 15.1681 2.43456 16.8487C2.52119 17.1264 2.67461 17.3788 2.88166 17.5837C3.09857 17.7984 3.36702 17.9537 3.66122 18.0347C3.98854 18.1217 4.65028 18.2035 5.5422 18.2686C6.40869 18.3318 7.41391 18.3744 8.37479 18.4029C9.33406 18.4314 10.2411 18.4457 10.9089 18.4529C11.2426 18.4564 11.516 18.4582 11.7058 18.4591C11.8007 18.4596 11.8746 18.4598 11.9246 18.4599H12.0756C12.1256 18.4598 12.1995 18.4596 12.2944 18.4591C12.4841 18.4582 12.7576 18.4564 13.0913 18.4529C13.759 18.4457 14.6661 18.4314 15.6254 18.4029C16.5863 18.3744 17.5915 18.3318 18.458 18.2686C19.3461 18.2038 20.006 18.1224 20.3347 18.0358C20.6334 17.95 20.9045 17.7875 21.1209 17.5643C21.3321 17.3467 21.484 17.0788 21.5625 16.7863C21.8597 15.1253 22.0062 13.4409 22.0001 11.7536L22.0001 11.7437C22.0108 10.0306 21.8644 8.32008 21.5625 6.63377C21.484 6.3412 21.3321 6.07333 21.1209 5.85566C20.907 5.63509 20.6396 5.47373 20.345 5.38717C20.005 5.3072 19.3427 5.23348 18.4643 5.17498C17.596 5.11716 16.5894 5.07822 15.628 5.05213C14.668 5.02609 13.7603 5.01304 13.0922 5.00651C12.7583 5.00325 12.4847 5.00162 12.2948 5.00081L12.0758 5.0001L12.0001 5L12.0001 4C12.0001 3 12 3 11.9999 3L12.0798 3.0001C12.1313 3.00021 12.2068 3.00042 12.3034 3.00083C12.4964 3.00166 12.7737 3.00331 13.1117 3.00661C13.7874 3.01321 14.7072 3.02641 15.6822 3.05287C16.6558 3.07928 17.6916 3.11909 18.5972 3.1794C19.4768 3.23798 20.3116 3.32017 20.8373 3.44854C20.849 3.45141 20.8607 3.45448 20.8723 3.45777C21.5124 3.63886 22.0934 3.98566 22.5565 4.46315C23.0197 4.94063 23.3486 5.53189 23.5102 6.17719L22.5401 6.42L23.5242 6.24249C23.8521 8.06021 24.0114 9.90432 24.0001 11.7513C24.0063 13.5707 23.8471 15.3869 23.5242 17.1774C23.5203 17.1994 23.5156 17.2212 23.5102 17.2428C23.3486 17.8881 23.0197 18.4794 22.5565 18.9569C22.0934 19.4343 21.5124 19.7811 20.8723 19.9622L20.8584 19.966C20.3248 20.1088 19.4828 20.1992 18.6035 20.2633C17.6962 20.3295 16.6589 20.3731 15.6848 20.4021C14.7091 20.4311 13.7886 20.4455 13.1127 20.4528C12.7745 20.4564 12.497 20.4582 12.3038 20.4591C12.2071 20.4595 12.1316 20.4598 12.08 20.4599L12.0005 20.46L11.9202 20.4599C11.8686 20.4598 11.793 20.4595 11.6964 20.4591C11.5032 20.4582 11.2257 20.4564 10.8875 20.4528C10.2115 20.4455 9.29111 20.4311 8.31538 20.4021C7.34126 20.3731 6.30398 20.3295 5.39671 20.2633C4.51741 20.1992 3.67537 20.1088 3.14172 19.966L3.13616 19.9646C2.50909 19.793 1.93687 19.4626 1.47479 19.0052C1.01271 18.5479 0.676391 17.9792 0.498325 17.3539C0.489286 17.3222 0.481823 17.29 0.475965 17.2575C0.148126 15.44 -0.0111821 13.5961 6.83708e-05 11.7493C-0.00864589 9.91636 0.150649 8.08643 0.475958 6.28253C0.479912 6.2606 0.484598 6.23881 0.490009 6.21719C0.651527 5.57189 0.980479 4.98063 1.44364 4.50315C1.9068 4.02566 2.48776 3.67886 3.12785 3.49777L3.14172 3.49395C3.67537 3.35123 4.51741 3.26085 5.39671 3.19671C6.30398 3.13054 7.34125 3.08689 8.31538 3.05794C9.29111 3.02895 10.2115 3.01448 10.8875 3.00724C11.2257 3.00363 11.5032 3.00182 11.6964 3.00091C11.793 3.00046 11.8686 3.00023 11.9202 3.00011L11.9999 3Z" fill="#121314"/>
<path fill-rule="evenodd" clip-rule="evenodd" d="M9.24718 7.61559C9.55499 7.43653 9.9348 7.43468 10.2443 7.61072L15.9943 10.8807C16.3069 11.0585 16.5 11.3904 16.5 11.75C16.5 12.1096 16.3069 12.4415 15.9943 12.6192L10.2443 15.8892C9.9348 16.0653 9.55499 16.0634 9.24718 15.8844C8.93937 15.7053 8.75 15.3761 8.75 15.02V8.47998C8.75 8.12388 8.93937 7.79464 9.24718 7.61559ZM10.75 10.1991V13.3009L13.4771 11.75L10.75 10.1991Z" fill="#121314"/>
</g>
<defs>
<clipPath id="clip0">
<path d="M0 0H24V24H0V0Z" fill="white"/>
</clipPath>
</defs>
</svg>
