<svg width="24" height="24" viewBox="0 0 24 24" xmlns="http://www.w3.org/2000/svg">
<path fill-rule="evenodd" clip-rule="evenodd" d="M10.0166 3.21567C11.9096 2.78796 13.8902 2.98364 15.663 3.77354C16.1675 3.99832 16.7587 3.77158 16.9834 3.26711C17.2082 2.76264 16.9815 2.17146 16.477 1.94668C14.3103 0.981252 11.8896 0.742082 9.57581 1.26484C7.26206 1.7876 5.17929 3.04428 3.63811 4.84746C2.09693 6.65064 1.17992 8.9037 1.02384 11.2706C0.86777 13.6376 1.48099 15.9915 2.77206 17.9815C4.06312 19.9714 5.96285 21.4907 8.18792 22.3127C10.413 23.1348 12.8442 23.2155 15.1189 22.543C17.3936 21.8704 19.39 20.4806 20.8103 18.5807C22.2306 16.6808 22.9986 14.3727 23 12.0007V11.0801C23 10.5278 22.5523 10.0801 22 10.0801C21.4477 10.0801 21 10.5278 21 11.0801V11.9995C20.9989 13.9403 20.3705 15.8287 19.2084 17.3832C18.0464 18.9376 16.413 20.0748 14.5518 20.625C12.6907 21.1753 10.7015 21.1092 8.88103 20.4367C7.06051 19.7641 5.50619 18.521 4.44987 16.8929C3.39354 15.2648 2.89181 13.3388 3.01951 11.4022C3.14721 9.46565 3.89749 7.62223 5.15845 6.1469C6.41942 4.67158 8.12351 3.64338 10.0166 3.21567ZM22.7075 4.70675C23.0978 4.31603 23.0975 3.68287 22.7068 3.29254C22.316 2.90221 21.6829 2.90253 21.2925 3.29325L11.9996 12.5954L9.70711 10.3029C9.31658 9.91237 8.68342 9.91237 8.29289 10.3029C7.90237 10.6934 7.90237 11.3266 8.29289 11.7171L11.2929 14.7171C11.4805 14.9047 11.7349 15.0101 12.0003 15.01C12.2656 15.0099 12.52 14.9044 12.7075 14.7168L22.7075 4.70675Z"/>
</svg>
