<svg width="24" height="24" viewBox="0 0 24 24" xmlns="http://www.w3.org/2000/svg">
<path fill-rule="evenodd" clip-rule="evenodd" d="M6 8.5C6 7.11929 7.11929 6 8.5 6C9.88071 6 11 7.11929 11 8.5C11 9.88071 9.88071 11 8.5 11C7.11929 11 6 9.88071 6 8.5ZM8.5 8C8.22386 8 8 8.22386 8 8.5C8 8.77614 8.22386 9 8.5 9C8.77614 9 9 8.77614 9 8.5C9 8.22386 8.77614 8 8.5 8Z"/>
<path fill-rule="evenodd" clip-rule="evenodd" d="M22 5C22 3.34315 20.6569 2 19 2H5C3.34315 2 2 3.34315 2 5V19C2 20.6569 3.34315 22 5 22H19C20.6569 22 22 20.6569 22 19V5ZM5 4C4.44772 4 4 4.44772 4 5V19C4 19.4288 4.2699 19.7946 4.64909 19.9367L15.2929 9.29289C15.6834 8.90237 16.3166 8.90237 16.7071 9.29289L20 12.5858V5C20 4.44772 19.5523 4 19 4H5ZM20 15.4142L16 11.4142L7.41421 20H19C19.5523 20 20 19.5523 20 19V15.4142Z"/>
</svg>
