<svg width="32" height="32" viewBox="0 0 32 32" xmlns="http://www.w3.org/2000/svg">
<path d="M13.2823 3.96242C15.8765 3.3763 18.5907 3.64446 21.02 4.72691C21.5245 4.95169 22.1156 4.72495 22.3404 4.22048C22.5652 3.71601 22.3385 3.12483 21.834 2.90005C19.0107 1.64207 15.8564 1.33042 12.8415 2.01159C9.82665 2.69277 7.11273 4.33026 5.10453 6.67986C3.09632 9.02945 1.90143 11.9653 1.69806 15.0494C1.49469 18.1336 2.29374 21.2009 3.97604 23.7938C5.65833 26.3868 8.13373 28.3665 11.0331 29.4376C13.9324 30.5088 17.1003 30.614 20.0643 29.7376C23.0284 28.8613 25.6297 27.0502 27.4804 24.5747C29.331 22.0991 30.3319 19.0916 30.3337 16.0007V14.7735C30.3337 14.2212 29.886 13.7735 29.3337 13.7735C28.7814 13.7735 28.3337 14.2212 28.3337 14.7735L28.3337 15.9996C28.332 18.659 27.4708 21.2472 25.8785 23.3772C24.2861 25.5073 22.0477 27.0656 19.4973 27.8197C16.9468 28.5738 14.2209 28.4833 11.7262 27.5616C9.2314 26.6399 7.1014 24.9364 5.65384 22.7053C4.20629 20.4741 3.51874 17.8349 3.69373 15.181C3.86872 12.5272 4.89688 10.001 6.62487 7.9793C8.35286 5.95755 10.6881 4.54855 13.2823 3.96242Z"/>
<path d="M30.0408 6.04001C30.4311 5.64929 30.4308 5.01612 30.0401 4.62579C29.6494 4.23546 29.0162 4.23578 28.6259 4.6265L15.9996 17.2654L12.7071 13.9728C12.3166 13.5823 11.6834 13.5823 11.2929 13.9728C10.9024 14.3633 10.9024 14.9965 11.2929 15.387L15.2929 19.387C15.4805 19.5746 15.7349 19.68 16.0003 19.6799C16.2656 19.6799 16.52 19.5744 16.7075 19.3867L30.0408 6.04001Z"/>
</svg>
