<svg width="32" height="32" viewBox="0 0 32 32" xmlns="http://www.w3.org/2000/svg">
<path fill-rule="evenodd" clip-rule="evenodd" d="M8.33301 11.3333C8.33301 9.6764 9.67615 8.33325 11.333 8.33325C12.9899 8.33325 14.333 9.6764 14.333 11.3333C14.333 12.9901 12.9899 14.3333 11.333 14.3333C9.67615 14.3333 8.33301 12.9901 8.33301 11.3333ZM11.333 10.3333C10.7807 10.3333 10.333 10.781 10.333 11.3333C10.333 11.8855 10.7807 12.3333 11.333 12.3333C11.8853 12.3333 12.333 11.8855 12.333 11.3333C12.333 10.781 11.8853 10.3333 11.333 10.3333Z"/>
<path fill-rule="evenodd" clip-rule="evenodd" d="M29 19.9743V6.66667C29 4.64162 27.3584 3 25.3333 3H6.66667C4.64162 3 3 4.64162 3 6.66667V25.3333C3 27.3584 4.64162 29 6.66667 29H25.3333C27.3584 29 29 27.3584 29 25.3333V20.0256C29.0004 20.0085 29.0004 19.9914 29 19.9743ZM6.66667 5C5.74619 5 5 5.74619 5 6.66667V25.3333C5 26.1258 5.55315 26.7892 6.29442 26.9583L20.6266 12.6261C21.0171 12.2356 21.6502 12.2356 22.0408 12.6261L27 17.5854V6.66667C27 5.74619 26.2538 5 25.3333 5H6.66667ZM27 20.4138L21.3337 14.7475L9.08112 27H25.3333C26.2538 27 27 26.2538 27 25.3333V20.4138Z"/>
</svg>
